<svg xmlns="http://www.w3.org/2000/svg" id="Layer_1" viewBox="543.36 160.44 460.38 199.13"><defs><style>.cls-1{fill:#15f5ba;}</style></defs><path class="cls-1" d="M1000.5,239c-.92,20.39-3.79,40.68-8.53,60.54-3.45,14.45-7.73,28.9-13.82,42.48-1.78,3.97-3.69,7.97-6.18,11.55-.68.98-1.43,1.93-2.34,2.71-.01.01-.45.29-.44.25.02-.11.49.25.51.22.13-.26-.17-1.62-.17-1.92,0-1.2.09-2.39.17-3.59.23-3.32.48-6.63.54-9.95.16-8.9-.94-17.92-4.21-26.24-3.46-8.84-9.12-16.6-16.34-22.74-1.64-1.4-3.36-2.72-5.13-3.96-1.65-1.16-3.89-3.14-5.85-3.7-.33-.09-.53-.1-.84-.13-2.18-.2-4.47,0-6.65,0h-327.25c-2.69,0-5.38,0-8.07,0-9.84,0-19.36-2.61-27.61-8.06-13.32-8.79-21.57-23.95-21.78-39.9-.11-8.11-.04-16.23,0-24.34.07-15.49,7.44-30.34,20.06-39.45,8.53-6.16,18.66-9.24,29.14-9.25,7.51,0,15.03,0,22.54,0h330.29c3.24,0,6.46-.02,9.69.4,15.8,2.04,29.83,12.08,37.05,26.26,3.5,6.87,5.01,14.24,5.22,21.9.25,9,.38,17.95,0,26.95-.08,1.93,2.92,1.93,3,0,.39-9.23.22-18.42,0-27.64-.19-7.92-2.03-15.65-5.63-22.72-7.08-13.9-20.55-24.14-35.86-27.14-7.84-1.54-16.2-.99-24.16-.99h-336.09c-2.14,0-4.29,0-6.43,0-12.42.05-24.42,4.38-33.87,12.48-11.44,9.8-17.89,24.28-17.96,39.3-.04,8.6-.33,17.27.05,25.86.69,15.66,8.62,30.28,21.25,39.52,8.94,6.54,19.76,9.82,30.8,9.84,7.75.01,15.49,0,23.24,0h317.55c.47,0,1.24-.15,1.69,0-.08-.03.49.5.81.7,2.13,1.29,4.2,2.69,6.18,4.2,3.75,2.86,7.19,6.16,10.16,9.83,6.55,8.1,10.35,18.08,11.54,28.39.84,7.29.29,14.52-.15,21.81-.13,2.26-.62,7.9,3.28,7.01,2.29-.52,3.99-3.3,5.17-5.1,2.59-3.95,4.6-8.3,6.47-12.62,6.08-14.07,10.46-28.89,13.89-43.8,4.45-19.34,7.17-39.09,8.07-58.92.09-1.93-2.91-1.93-3,0Z"></path></svg>