<svg xmlns="http://www.w3.org/2000/svg" id="Layer_1" viewBox="339.26 0.55 275.76 1057.74"><defs><style>.cls-2{fill:#fff}.cls-3{fill:#15f5ba}</style></defs><path d="M466.82 2v318.5c0 1.93 3 1.93 3 0V2c0-1.93-3-1.93-3 0Z" class="cls-3"/><path d="M370 689c-1.03 5.05-4.74 26.08 8 45 13 19.31 34.23 23.21 44 25 38.8 7.13 69.81-16.98 76-22 6.02 2.76 29.07 12.48 50 2 2.83-1.42 5.9-3.34 9-6 3 3.67 6 7.33 9 11-.33 24-.67 48-1 72a191.185 191.185 0 0 1 44 77c1.33-61.33 2.67-122.67 4-184-15.67-18.33-31.33-36.67-47-55-.46-4.12-.85-10.41 0-18 .91-8.13 2.46-10.75 1-15-2.84-8.3-13.24-11.47-15-12-12.24-3.73-22.93 2.7-25 4l-37 25c-12.44.55-20.73 3.98-26 7-4.2 2.41-6.12 4.35-16 11 0 0-6.52 4.39-14 9-17.34 10.69-57.86 22.26-64 24Z" class="cls-2"/><path d="M503 543c1.93 0 1.93-3 0-3s-1.93 3 0 3ZM460 627.5c-.45 5.87.26 11.79 2.05 17.4l.69-1.69c-3 1.33-6 2.67-9 4l1.51 2.59a89.197 89.197 0 0 1 34.24-8.8c1.92-.1 1.93-3.1 0-3a93.004 93.004 0 0 0-35.76 9.2c-1.76.85-.22 3.36 1.51 2.59 3-1.33 6-2.67 9-4 .58-.26.87-1.12.69-1.69a43.624 43.624 0 0 1-1.95-16.6c.15-1.93-2.85-1.92-3 0Z"/><path d="M446.11 320.5c-.21 5.67.04 12.46 1.39 20 2.82 15.7 9.15 27.58 14 35 1.84.6 7.01 2.01 13 0 3.99-1.34 6.63-3.62 8-5" class="cls-2"/><path d="M444.61 320.5c-.45 12.61 1.59 25.28 6.08 37.07a97.697 97.697 0 0 0 8.2 16.62c.5.81 1.02 2.1 1.85 2.61.67.41 1.71.56 2.46.72 1.18.25 2.4.42 3.61.49 6.23.38 12.35-2.05 16.75-6.44 1.37-1.37-.75-3.49-2.12-2.12-5.14 5.13-12.65 6.83-19.54 4.61l.9.69c-7.95-12.21-13.15-26.17-14.72-40.68-.49-4.5-.63-9.04-.47-13.57.07-1.93-2.93-1.93-3 0ZM451.89 513.16c-6.76 0-13.64-.94-20.44-2.8l-1.3-.35-.82-1.06a24.9 24.9 0 0 1-4.77-10.73c-1-5.54.1-10.19 1.19-13.11l1.04-2.79 2.97.2c.13 0 .44.03.9.03 3.23 0 11.32-.73 16.69-7.52 4.35-5.5 4.35-11.75 4.15-14.19l-.66-8.02 6.79 4.32c.79.5 1.66.79 2.39.79h.04a4.96 4.96 0 0 0-.28-.91c-.46-1.14-1.57-1.7-1.9-1.84l-6.35-2.79 5.59-4.1c1.15-.84 2.1-1.88 2.84-3.09 1.13-1.87 1.46-3.71 1.54-4.94l.33-5.25 2.78.96c-.11-1.16-.39-2.91-1.01-5.55-1.29-5.54-3.24-11.75-5.81-18.54-3.3 7.37-7.93 13.71-13.68 18.66-6.39 5.5-15.97 11.05-22.99 11.05-2.46 0-4.52-.66-6.14-1.97-2.1-1.71-2.79-4.01-3.34-5.86-.57-1.92-1.06-3.57-2.93-5.37-.94-.91-1.83-1.77-2.81-1.92-.11-.02-.23-.03-.35-.03-2.39 0-6.18 3.27-7.19 7.09-1.15 4.35 1.43 9.53 6.27 12.6l2.2 1.4-.39 2.58c-2.1 13.9-.91 22.96 3.43 26.19.58.43 1.34.86 2.13 1.3 2.45 1.37 5.82 3.26 6.43 7.3.99 6.5-6.34 11.34-8.75 12.94-5.39 3.57-11.88 5.38-19.29 5.38-2.77 0-5.67-.26-8.6-.77l-1.31-.23-.91-.97c-21.97-23.36-28.55-56.83-16.78-85.27 14.86-35.91 51.64-45.4 55.79-46.37l.74-.17 28.44 4.21.61.32c15.94 8.48 26.01 19.02 29.93 31.32 1.99 6.23 1.94 11.43 1.9 16.01-.05 5.72-.1 10.67 3.74 17.18.86 1.47 1.85 2.9 2.9 4.41 3.19 4.61 6.8 9.84 6.66 16.71-.17 7.89-1.02 11.5-1.12 11.89-.13.5-.25.96-.38 1.4-.39 1.4-.6 2.18-.52 3.32.12 1.56.69 3.5 1.54 4.2.13.11.53.43 1.69.43 1.42 0 3.16-.49 4.56-.88 1.39-.39 2.49-.7 3.61-.7 1.74 0 3.22.8 4.05 2.19.54.9 1.01 2.4.21 4.43-2.1 5.36-16.53 18.85-35.51 24.45-6.34 1.87-12.98 2.82-19.74 2.82Z"/><path d="M503.5 483.5c-.8-1.34-8.61 3.58-13 0-2.56-2.09-2.94-6.26-3-7-.17-2.32.43-3.74 1-6 0 0 .84-3.33 1-11 .16-7.49-5.34-12.79-9-19-7.67-13.03-1.8-20.83-6-34-2.67-8.36-9.47-19.14-28-29-9-1.33-18-2.67-27-4-3.76.89-38.7 9.84-53 44-11.39 27.19-5.12 59.44 16 82 6.56.77 16.52.72 25-5 1.93-1.3 7.59-5.12 7-9-.46-3.01-4.34-4.02-7-6-4.28-3.18-7.9-10.75-5-30-6.41-4.06-9.58-11.03-8-17 1.45-5.5 7.09-10.73 12-10 2.24.33 3.79 1.83 5 3 4.65 4.49 3.39 8.88 6 11 4.5 3.65 16.58-2.61 24-9 9.84-8.48 14.09-19.42 16-27 6.03 14.03 8.71 23.48 10 29 1.08 4.63 1.97 9.89 0 11-.64.36-1.42.2-2 0-.09 1.37-.44 4.01-2.11 6.76a14.81 14.81 0 0 1-3.89 4.24c.59.26 2.93 1.36 4 4 .18.45 1.32 3.26 0 5-1.31 1.72-4.77 2.05-8 0 .16 1.94.6 9.93-5 17-7.67 9.7-19.87 9.08-21 9a20.96 20.96 0 0 0-1 11c.8 4.43 2.85 7.5 4 9 7.61 2.08 21.88 4.76 38 0 20.31-6 34.17-21.04 33-23Z" style="fill:#fff;stroke:#fff;stroke-miterlimit:10"/><path d="M564 783c3.32 2.47 12.19 8.38 25 9 10.98.53 19.27-3.09 23-5-1.33 34.33-2.67 68.67-4 103a231.939 231.939 0 0 0-20-43 231.201 231.201 0 0 0-23-32c-.33-10.67-.67-21.33-1-32Z"/><path d="m457 759.5-2.73 74.81c-.91 25.02-1.82 50.04-2.74 75.05-.51 14.05-1.02 28.09-1.54 42.14l2.26-1.3c-11.43-7.39-22.54-21.75-16.93-36.04 4.5-11.44 17.84-17.3 29.03-19.77 11.78-2.6 23.96-1.39 35.07 3.34 11.03 4.69 21.71 13.82 20.59 26.92-.52 6.09-3.62 11.75-7.45 16.39-2.62 3.17-5.98 6.36-9.03 8.6-.26.19-.53.38-.8.57l2.26 1.3-.78-51.55-.78-51.31c-.15-9.71-.29-19.43-.44-29.14-.03-1.93-3.03-1.93-3 0l.78 51.55.78 51.31c.15 9.71.29 19.43.44 29.14.02 1.07 1.29 1.96 2.26 1.3 7.98-5.42 15.28-13.78 17.88-23.18 1.82-6.58.98-13.63-2.53-19.5s-8.63-9.81-14.3-12.87c-11.43-6.16-24.8-8.49-37.61-6.52-12.54 1.93-26.9 7.61-33.58 19.11-8.02 13.8.16 29.88 11.31 39.08 1.69 1.39 3.46 2.68 5.3 3.87 1 .64 2.22-.21 2.26-1.3l2.73-74.81c.91-25.02 1.82-50.04 2.74-75.05.51-14.05 1.02-28.09 1.54-42.14.07-1.93-2.93-1.93-3 0Z" class="cls-2"/><path d="M563.44 653.5c11.3 10.85 22.03 22.02 31.89 34.19 5.09 6.29 9.78 12.76 14.41 19.41.45.65 1.07 1.23 1.22 2.16.16.93-.02 2.17-.03 3.19l-.09 6.45c-.06 4.3-.12 8.6-.19 12.9-.27 17.22-.56 34.37-.92 51.6-.35 17.23-.75 34.47-1.17 51.74-.42 17.27-.89 34.62-1.37 51.92-.06 2.16-.13 4.33-.19 6.5.98-.13 1.96-.26 2.95-.4-6.97-23.26-17.44-44.64-31.47-64.46-4.29-6.06-9.04-11.56-13.92-17.13.14.38.29.72.44 1.09-.9-26.1.84-52.06 2.98-78.09.27-3.29.66-6.79.9-10.16-.89.04-2.01-.01-2.93.05-.74 7.09-1.24 14.73-1.97 21.88.94-.23 1.86-.49 2.8-.74-3.72-5.22-7.33-10.65-11.06-15.81-1.11-1.53-3.56-.15-2.5 1.45 3.52 5.34 7.3 10.63 10.99 15.82.88 1.23 2.59.74 2.74-.74.72-7.24 1.4-14.63 1.93-21.9.14-1.92-2.74-1.78-2.93.05-2.22 21.41-3.71 42.9-4.2 64.46-.12 5.35-.08 10.6 0 15.97.03 2.18.11 4.39.18 6.61.02.6-.04 1.24.25 1.83.3.59.96 1.11 1.39 1.61 1.21 1.39 2.41 2.66 3.57 4.09 9.43 11.62 17.88 24.02 24.81 37.21 6.43 12.24 11.02 24.65 15.13 37.71.53 1.68 2.8 1.3 2.86-.39.62-17.42 1.01-34.99 1.46-52.42.45-17.43.83-34.86 1.21-52.26.37-17.4.67-34.72.95-52.11.14-8.68.26-17.35.38-26.06.01-.94.21-2.08-.19-2.96s-1.05-1.59-1.57-2.34c-1.1-1.6-2.17-3.17-3.3-4.73-2.4-3.33-4.78-6.64-7.32-9.87a361.572 361.572 0 0 0-32.2-35.78c-1.27-1.23-2.51-2.43-3.87-3.59-1.36-1.16-3.47.73-2.07 2.07-.07.08 0 0 0 0Z"/><path d="M566.38 765.5c-.99 17.31-1.33 34.66-1 52 .03 1.45 2.28 1.45 2.25 0-.33-17.34 0-34.69 1-52 .08-1.45-2.17-1.44-2.25 0ZM607.38 773.5c.16 30.69 0 61.39-.5 92.07-.14 8.64-.31 17.28-.5 25.93-.03 1.45 2.22 1.45 2.25 0 .68-30.62 1.03-61.25 1.06-91.88 0-8.71-.01-17.42-.06-26.12 0-1.45-2.26-1.45-2.25 0Z" class="cls-2"/><path d="M417 758.5c.89 15.15-1.06 30.47-6.36 44.72-4.73 12.72-12.46 23.69-20.25 34.68-3.94 5.55-7.77 11.18-11.08 17.13-4.01 7.21-7.34 14.8-10.01 22.6-4.39 12.79-7.05 26.2-8.01 39.68-.64 9.07-.36 18.08 1.25 27.04 1.83 10.23 5.1 20.16 9.3 29.65 9.23 20.91 23.25 39.96 40.69 54.75 18.39 15.6 40.76 26.25 64.85 28.89 25.2 2.76 50.87-3.35 72.4-16.63 20.11-12.41 36.49-30.52 47.96-51.1 10.24-18.36 17.21-39.42 17.28-60.6.04-13.96-2.65-27.99-6.74-41.3-4.7-15.29-11.53-29.93-20.51-43.17-7.65-11.28-16.93-21.46-23.68-33.35-7.9-13.93-11.8-29.9-12.2-45.86-.16-6.25.21-12.53 1.05-18.72.26-1.89-2.63-2.7-2.89-.8-1.94 14.23-1.54 28.71 1.9 42.69 1.86 7.56 4.58 14.9 8.22 21.78 3.06 5.79 6.77 11.2 10.68 16.44 4.11 5.51 8.39 10.88 12.36 16.5 4.47 6.33 8.5 12.95 11.99 19.87 6.96 13.81 11.94 28.7 14.71 43.91 2.09 11.47 2.78 23.17 1.21 34.75-1.41 10.34-4.3 20.48-8.2 30.14-8.56 21.23-22.28 40.6-39.77 55.41-18.83 15.95-42.27 25.99-66.98 27.49-24.49 1.49-48.54-5.52-68.95-18.99-19.2-12.67-34.93-30.43-46.2-50.42-9.74-17.28-16.74-36.99-17.08-56.99-.46-26.37 6.67-53.63 20.3-76.19 6.59-10.9 14.8-20.73 21.27-31.71 7.77-13.2 12.45-27.83 14.07-43.05.68-6.39.79-12.83.42-19.24-.11-1.92-3.11-1.93-3 0Z" class="cls-3"/><path d="M493.38 728.5c.08 15.52.43 31.04 1.11 46.55.18 4.06.44 8.11.69 12.16.32 5.26.27 10.55.36 15.82.12 6.71.7 13.3 2.38 19.82 1.37 5.34 3.31 10.5 5.84 15.4 3 5.8 6.87 11.02 11.22 15.88 3.84 4.29 8.16 8.2 13.13 11.15 6.21 3.69 13.33 5.72 20.57 5.66 6.78-.05 13.44-1.87 19.48-4.89.99-.49 1.96-1.02 2.91-1.58.52-.3.72-1.02.4-1.54-10-16.67-20-33.33-30-50l.11.87c2.54-9.95 4.86-19.95 6.91-30.01 1.29-6.35 2.49-12.71 3.6-19.09.94-5.45 1.58-10.95 2.42-16.42.54-3.51 1.12-7.01 1.73-10.51.65-3.73.97-7.51 1.39-11.27.16-1.44-2.09-1.43-2.25 0-.53 4.75-1.11 9.46-1.9 14.17s-1.58 9.86-2.24 14.81c-1.18 8.8-2.85 17.53-4.6 26.23-1.26 6.28-2.63 12.55-4.09 18.79-.56 2.39-1.14 4.78-1.72 7.17-.34 1.37-.68 2.75-1.03 4.12-.13.53-.42 1.16-.4 1.72.02.66.6 1.31.92 1.85 2.99 4.99 5.98 9.97 8.97 14.96 6.75 11.25 13.5 22.51 20.26 33.76l.4-1.54c-11.56 6.75-25.71 8.38-37.93 2.31-5.24-2.6-9.79-6.31-13.81-10.53s-8-9.21-11.02-14.49c-5.98-10.42-8.96-22.14-9.32-34.11-.17-5.78-.08-11.56-.36-17.34-.15-3.14-.41-6.27-.57-9.4-.73-14.61-1.1-29.24-1.24-43.87-.02-2.2-.04-4.4-.05-6.59 0-1.45-2.26-1.45-2.25 0ZM482.5 320.5h-36.39c-.36 2.87-2.25 20.41 10.39 35 9.73 11.23 22.17 13.91 26 14.59l17 23.41 17-15-34-58Z" class="cls-2"/><path d="M482.5 319h-36.39c-.88 0-1.4.69-1.5 1.5-.9 7.32.05 15.03 2.56 21.95 4.11 11.31 12.69 20.57 23.65 25.53 3.61 1.63 7.39 2.86 11.29 3.55l-.9-.69c4.96 6.83 9.91 13.66 14.87 20.48.71.98 1.42 1.95 2.13 2.93.59.81 1.58.99 2.36.3 4.95-4.37 9.9-8.73 14.85-13.1.72-.63 1.44-1.27 2.15-1.9.49-.44.56-1.27.23-1.82-3.84-6.56-7.69-13.12-11.53-19.67-6.08-10.37-12.16-20.75-18.24-31.12-1.41-2.4-2.82-4.8-4.22-7.2-.98-1.66-3.57-.16-2.59 1.51 3.84 6.56 7.69 13.12 11.53 19.67 6.08 10.37 12.16 20.75 18.24 31.12 1.41 2.4 2.82 4.8 4.22 7.2l.23-1.82c-4.95 4.37-9.9 8.73-14.85 13.1l-2.15 1.9 2.36.3c-5.52-7.61-11.05-15.22-16.57-22.82-.37-.51-.69-1.07-1.33-1.28-1.01-.34-2.16-.42-3.2-.69a44.4 44.4 0 0 1-10.01-3.86c-9.19-4.91-16.37-13.1-19.81-22.95-2.29-6.56-3.13-13.73-2.27-20.64l-1.5 1.5h36.39c1.93 0 1.93-3 0-3Z"/><path d="M414.5 484.5c-.2 1.07-.55 2.42-1.22 3.9-.57 1.27-1.21 2.3-1.78 3.1-.95.95-2.26 2.06-4 3-4.11 2.22-8.1 2.16-10 2-1.11 13.16 8.58 23.7 19 24 7.85.22 15.68-5.38 19-14-.81-.45-5.47-3.14-7-9-1.44-5.53.94-9.92 1.44-10.8-2.22.35-5.55.59-9.44-.2-2.43-.5-4.45-1.27-6-2Z" class="cls-2"/><path d="M413.12 484.08c-.6 1.94-1.25 4.02-2.46 5.74-1.21 1.72-2.84 3.11-4.53 4.27-3.26 2.25-6.67 3.75-10.5 4.17-.98.11-1.43.85-1.35 1.6.96 8.36 4.36 15.43 11.72 19.82 7.06 4.21 14.27 3.73 21.08-.64 4.24-2.72 6.41-7.13 8.58-11.56.28-.57-.1-1.33-.56-1.75-5.27-4.95-6.85-11.53-3.98-18.14.57-1.31-.35-2.34-1.66-2.21-5.06.51-9.58-.24-14.15-2.2-1.79-.77-3.27 1.64-1.51 2.52 5.25 2.61 10.57 3.14 16.39 2.58-.55-.75-1.11-1.49-1.66-2.23-3.6 8.25-1.62 16.18 4.86 22.4-.21-.57-.32-1.23-.48-1.77-3.43 6.64-7.94 12.34-15.81 12.93-6.96.52-12.02-3.34-16.03-8.47-2.66-3.41-3.31-7.39-3.86-11.5-.41.51-.89 1.06-1.32 1.59 4.54-.31 8.53-2.28 12.22-4.88 1.81-1.28 3.67-2.87 4.88-4.67 1.42-2.11 2.48-4.42 2.87-6.77.33-1.94-2.15-2.77-2.75-.83Z"/><path d="M489.5 393.5A49.95 49.95 0 0 0 508 386a50.12 50.12 0 0 0 14-14c9 12.67 18 25.33 27 38l24 66c-3.67 8-7.33 16-11 24-20.33 19.67-40.67 39.33-61 59-7.67 13-15.33 26-23 39 1.33 1 2.67 2 4 3-7 9.67-14 19.33-21 29l3 15c-2.57 1.91-6.36 4.7-11 8-11.03 7.84-23.78 16.34-30 20-8.64 5.08-25.15 12.87-53 16 .36-2.28.69-4.61 1-7 .4-3.08.73-6.08 1-9-4.67-1.33-9.33-2.67-14-4-5.33-16.67-10.67-33.33-16-50 3.67-35.67 7.33-71.33 11-107a82.811 82.811 0 0 1 24-11 83.129 83.129 0 0 1 22-3c.75 14.19 11.4 23.1 20 22 8.42-1.08 12.8-11.5 13-12 2.88-.11 7.43-.21 13 0 11.5.44 12.87 1.67 19 1 8.61-.94 14.99-4.35 18-6a53.53 53.53 0 0 0 11-8 73.586 73.586 0 0 0 15-18c7.33-12.38 9.36-24.15 10-31l-28.5-52.5Z"/><path d="M394.21 597.02c2.08 9.92 5.12 18.03 7.79 23.98l53-36c9.17 5.17 18.33 10.33 27.5 15.5a332.265 332.265 0 0 1-18.26 23.28c-5.52 6.42-14.07 16.52-25.74 26.72A215.954 215.954 0 0 1 395 680l-37-11.19c-5.17-16.44-10.33-32.87-15.5-49.31-1.55-13.2-2.47-28.32-2-45a312.31 312.31 0 0 1 8-62c8.64-3.95 19.01-7.91 31-11 7.12-1.84 13.83-3.11 20-4-.43 13.32 9.38 22.58 18 22 5.84-.39 11.3-5.31 14-12L463 509c5.2-1.05 25.91-5.85 40.5-25.5 11.75-15.82 12.88-32.3 13-38.35a421.274 421.274 0 0 0-27-51.65 88.252 88.252 0 0 0 32-21c9 12.67 18 25.33 27 38l24 66c-3.33 8.67-6.67 17.33-10 26-20.67 19.33-41.33 38.67-62 58"/><path d="M393.13 597.31c1.77 8.35 4.43 16.46 7.9 24.25.24.53 1.08.72 1.54.4 5.96-4.05 11.92-8.1 17.88-12.14l28.53-19.38c2.2-1.49 4.39-2.98 6.59-4.48h-1.14c9.17 5.17 18.33 10.33 27.5 15.5l-.4-1.54c-18.36 25.67-39.92 49.44-66.36 66.95a216.02 216.02 0 0 1-20.74 12.14l.87-.11-32.33-9.78-4.67-1.41.79.79c-3.37-10.73-6.75-21.46-10.12-32.2-1.67-5.32-3.4-10.62-5.01-15.95-.71-2.33-.78-4.87-1.01-7.28s-.44-4.82-.61-7.23c-1.53-20.94-.93-42.04 1.78-62.86 1.32-10.15 3.17-20.22 5.47-30.19l-.52.67c16.1-7.35 33.21-12.35 50.73-14.89l-1.42-1.08c-.17 7.36 2.66 14.83 8.55 19.46 5.19 4.08 11.97 4.97 17.6 1.19 3.74-2.5 6.35-6.24 8.06-10.35l-1.08.83c7.88.38 15.75.75 23.62 1.12l6.06.29c1 .05 1.9.1 2.87-.11 1.14-.24 2.27-.52 3.39-.83 8.57-2.34 16.75-6.32 23.82-11.69a66.505 66.505 0 0 0 22.54-31.05c1.71-4.9 2.83-9.98 3.41-15.13.2-1.76.33-3.53.38-5.3.03-1.08-.35-1.85-.79-2.84-.74-1.68-1.49-3.35-2.26-5.01a423.665 423.665 0 0 0-24.09-45.15l-.67 1.65c12.24-4.67 23.34-11.92 32.5-21.29l-1.77-.23c8.64 12.17 17.29 24.33 25.93 36.5 2.13 2.99 3.04 6.98 4.29 10.41l3.76 10.33c2.57 7.08 5.15 14.16 7.72 21.23s5.01 13.77 7.51 20.66c.58 1.59 1.72 3.47 1.23 5.12s-1.31 3.41-1.96 5.09c-1.3 3.39-2.61 6.78-3.91 10.17-.65 1.7-1.3 3.39-1.96 5.09-.69 1.8-1.13 3.73-2.56 5.07-2.75 2.57-5.5 5.15-8.25 7.72-5.35 5.01-10.71 10.01-16.06 15.02-12.19 11.41-24.38 22.81-36.58 34.22-1.06.99.53 2.58 1.59 1.59 11.08-10.36 22.15-20.72 33.23-31.09l16.73-15.65c2.68-2.5 5.35-5.01 8.03-7.51 1.26-1.18 3-2.37 4.01-3.76s1.43-3.45 2.03-5.02c2.68-6.96 5.55-13.88 8.04-20.91.53-1.5-.51-3.17-1.03-4.61l-1.98-5.45c-1.29-3.54-2.57-7.08-3.86-10.62-5.15-14.16-10.3-28.31-15.44-42.47-.75-2.07-1.36-3.99-2.64-5.79-1.18-1.67-2.37-3.33-3.55-5-2.49-3.5-4.97-7-7.46-10.5-4.97-7-9.95-14-14.92-21-.41-.58-1.22-.78-1.77-.23-8.88 9.08-19.64 16.18-31.5 20.71-.66.25-1.08.98-.67 1.65a422.993 422.993 0 0 1 20.98 38.52c1.53 3.2 3.02 6.41 4.47 9.65.49 1.08 1.3 2.32 1.38 3.49.05.76-.06 1.56-.11 2.32-.28 4.37-1.01 8.71-2.14 12.94-5.84 21.8-22.85 38.81-44.31 45.38-1.44.44-2.89.83-4.35 1.17-2.37.55-4.78.18-7.2.06l-25.75-1.23c-.54-.03-.9.38-1.08.83-3.06 7.36-10.6 13.77-18.78 10.04-7.51-3.42-11.2-11.85-11.01-19.74.02-.8-.73-1.19-1.42-1.08a187.054 187.054 0 0 0-47.4 13.4c-.73.31-1.45.63-2.18.95-.63.28-1.71.56-2.1 1.17-.62.98-.7 2.85-.95 3.98-.35 1.58-.68 3.16-1 4.75-1.33 6.52-2.45 13.08-3.35 19.66a314.697 314.697 0 0 0-2.95 45.81 314.143 314.143 0 0 0 1.99 32.4c.2 1.74.81 3.37 1.34 5.04.64 2.03 1.28 4.06 1.91 6.09l7.29 23.2c1.22 3.87 2.43 7.73 3.65 11.6.3.97.61 1.93.91 2.9.2.64.33 1.77.84 2.24.22.2.44.25.69.35 1.88.74 3.93 1.19 5.87 1.77 3.61 1.09 7.22 2.18 10.83 3.28l18.96 5.73c.36.11.78.31 1.16.35 1.14.13 2.49-.95 3.47-1.47a212.992 212.992 0 0 0 20.76-12.55c12.52-8.56 24.12-18.41 34.52-29.45 8.81-9.35 17.11-19.25 24.85-29.5 1.76-2.33 3.48-4.68 5.18-7.05.35-.49.09-1.26-.4-1.54-9.17-5.17-18.33-10.33-27.5-15.5-.33-.19-.81-.22-1.14 0-5.96 4.05-11.92 8.1-17.88 12.14l-28.53 19.38c-2.2 1.49-4.39 2.98-6.59 4.48l1.54.4c-3.4-7.61-5.95-15.57-7.68-23.72-.3-1.42-2.47-.82-2.17.6Z" class="cls-2"/><path d="M393.5 552.5c-1.46 8.3-2.62 20.07-1 34 .43 3.7 1.02 7.21 1.71 10.52"/><path d="M392.42 552.2c-2.61 14.94-2.37 30.26.71 45.11.29 1.42 2.46.82 2.17-.6-3-14.44-3.25-29.39-.71-43.92.25-1.42-1.92-2.02-2.17-.6ZM451.5 536.5c-.22 2.85-.26 8.06 2 14a32.33 32.33 0 0 0 7 11c14.44-21.14 15.59-29.1 13-32-2.43-2.73-9.41-1.34-13 0-5.15 1.92-7.98 5.55-9 7Z" class="cls-2"/><path d="M450 536.5c-.72 9.59 2.78 19.14 9.44 26.06.71.74 1.83.47 2.36-.3 3.61-5.3 7.13-10.72 10.06-16.44 1.62-3.17 3.22-6.54 3.92-10.06.41-2.04.58-4.34-.44-6.25-2.06-3.84-7.54-3.3-11.13-2.6-5.68 1.11-10.64 4.08-13.99 8.83-1.12 1.58 1.48 3.08 2.59 1.51 2.55-3.62 6.34-5.99 10.6-7.09 2.2-.57 4.67-1.03 6.94-.61.83.15 1.54.42 2.13 1.03.18.18-.15-.3.07.1l.24.42c.19.35-.08-.28.05.11.05.15.09.29.13.44.05.19.08.38.12.58-.07-.43 0 .21.02.35.05 1.16-.04 1.65-.27 2.7-.68 3.12-2.05 6.07-3.49 8.9-2.94 5.77-6.48 11.23-10.12 16.57l2.36-.3c-6.14-6.38-9.22-15.12-8.56-23.94.14-1.93-2.86-1.92-3 0Z"/><path d="M473.5 529.5c-3.1 5.24-6.29 11.58-9 19-5.28 14.43-6.76 27.46-7 37 6.67 4 13.33 8 20 12 4.8-5.11 10.29-12.04 15-21 10.44-19.85 11.33-38.74 11-49l-35-26c-2.72 2.34-15.46 13.81-17 33-.18 2.22-.19 4.35-.08 6.38" class="cls-2"/><path d="M472.2 528.74c-8.25 14.01-13.48 29.62-15.41 45.76-.44 3.65-.7 7.32-.79 11-.01.53.3 1.03.74 1.3 6.67 4 13.33 8 20 12 .55.33 1.37.24 1.82-.23 11.17-11.91 19.27-26.5 23.32-42.33 1.73-6.76 2.74-13.72 3.06-20.7.12-2.55.19-5.13.06-7.69-.05-1.09-.5-1.45-1.35-2.08-.99-.74-1.99-1.48-2.98-2.22-1.92-1.43-3.84-2.86-5.77-4.28-8.55-6.35-17.1-12.7-25.65-19.06-.56-.41-1.35-.17-1.82.23-7.81 6.73-13.63 16.05-16.13 26.04-1.18 4.7-1.63 9.56-1.38 14.4.1 1.92 3.1 1.93 3 0-.67-13.06 4.31-25.7 13.29-35.13 1.06-1.12 2.18-2.18 3.35-3.19l-1.82.23 35 26-.74-1.3c.61 19.76-4.53 39.47-15.39 56.06-3 4.59-6.42 8.88-10.17 12.88l1.82-.23c-6.67-4-13.33-8-20-12l.74 1.3c.41-15.13 3.72-30.17 9.95-43.98 1.74-3.86 3.7-7.61 5.84-11.26.98-1.67-1.61-3.18-2.59-1.51Z"/><path d="M456.55 400.57c2.56 4.39 5.3 11.38 6.84 15.73 2.17 6.17 3.03 12.72 2.97 17.9-.04 3.59-1.47 7.6-1.97 8.89-1.77 4.51-2.95 5.28-5.26 8.47 2.56.63 5.49 3.12 4.77 5.87-.85 3.23-4.41 3.31-6.97 2.96-.86-.12-1.33-.63-2-.98-.35 1.8-.62 4.16-1.25 5.84-.99 2.67-1.83 6.65-3.42 8.59-6.33 7.71-9.95 10.43-22.27 12.3-1.06.16-19.99-1.22-22.34-9.38-.93-3.21-4.02-9.99-3.68-14.71.29-4.04-.56-8.76.3-12.92-5.17-2.83-9.32-8.08-8.71-13.93.74-7.13 5.23-13.69 12.98-12.74 6.11.75 8.92 8.07 8.89 13.77 7.65-.55 15.65-2.48 21.84-6.88 10.45-7.44 16.1-16.78 19.26-28.78Z" class="cls-2"/><path d="M455.26 401.25c3.22 6.49 6.18 13.03 8.04 20.11 1.86 7.08 2.09 13.76-.16 20.79-1.02 3.18-3.03 5.69-5.05 8.29-.69.89-.59 2.03.63 2.48 1.75.65 4.84 2.37 3.49 4.64-1.34 2.27-4.55 1.7-6.47.56-1.14-.68-2.09.22-2.29 1.21-.77 3.77-1.52 7.38-3.09 10.86-1.31 2.88-2.6 5.35-5.14 7.41-4.7 3.82-9.88 6.48-16.19 6.91-9.57.64-18.69-2.07-23.3-11.07-1.89-3.7-1.7-7.8-2.18-11.86-.48-4.06-.1-8.31.22-12.44.04-.47-.29-1.03-.72-1.29-6.29-3.83-9.45-9.34-7.16-16.58 1.01-3.19 3.52-5.81 6.43-7.07 2.91-1.26 5.56-.47 7.78 1.61 2.96 2.77 3.74 6.49 3.82 10.43.02.81.68 1.57 1.48 1.5 9.97-.88 18.68-3.58 26.52-9.91 6.7-5.4 10.73-12.28 14.01-20.03.95-2.24 1.54-4.62 1.94-6.88.32-1.82-2.24-2.77-2.8-.79-4.23 14.96-12.15 25.67-26.53 32.01-4.34 1.92-8.57 2.09-13.13 2.64.5.43 1.01 1.07 1.49 1.44-.35-7.84-4.54-16.81-13.77-15.14-8.49 1.53-12.35 10.85-10.58 18.78 1.09 4.91 4.86 8.04 8.91 10.56-.19-.43-.47-.87-.71-1.3-.33 3.92-.67 7.8-.28 11.75s.38 8.14 1.81 11.92c2.4 6.36 6.59 10.83 13.21 13 10.67 3.5 20.74 1.58 29.95-4.61 3.36-2.26 5.35-5.17 7.1-8.67 2.06-4.12 3-8.61 3.87-13.11-.77.41-1.57.82-2.27 1.25 3.43 2.04 8.67 2.11 10.71-1.79 2.2-4.21-1.71-7.4-5.29-8.81.15.81.38 1.67.6 2.49 4.11-5.18 6.94-10.6 7.51-17.27.69-8.03-1.45-15.38-4.08-22.81-1.58-4.47-3.54-8.63-5.85-12.67-.96-1.67-3.36-.27-2.5 1.45Z"/><circle cx="428.5" cy="453.5" r="6" class="cls-3"/><path d="M452.5 465c-8.83-.08-17.11-3.96-22.94-10.56-.95-1.07-2.44-.12-2.56 1.06-.61 5.79 1.23 12.17 5.57 16.19 4.31 3.99 11.41 7.41 16.78 3.4 2.57-1.92 4.08-5.06 4.59-8.18.31-1.89-2.58-2.7-2.89-.8-.35 2.14-1.15 4.32-2.69 5.89-2.28 2.31-5.49 2.23-8.32 1.05-4.76-1.98-8.37-5.93-9.61-10.97-.52-2.14-.67-4.39-.44-6.58l-2.56 1.06A33.965 33.965 0 0 0 452.49 468c1.93.02 1.93-2.98 0-3ZM454.04 442.14c.11-2.96-1.25-6.12-3.9-7.6-3.62-2.01-8.14-.74-10.92 2.1-1.35 1.38.77 3.51 2.12 2.12 1.13-1.15 2.4-1.87 3.97-2.14 1.11-.2 2.44 0 3.44.59.36.21.43.26.74.56.12.12.24.24.34.37.13.15.07.06.2.28.43.67.53.88.73 1.59.08.29.14.58.2.87.01.08.03.15.04.23-.03-.2-.03-.24-.02-.13l.03.34c.02.27.03.55.02.82-.03.81.71 1.5 1.5 1.5.84 0 1.47-.69 1.5-1.5ZM400.2 434.26c1.93 4.18 4.9 7.75 8.54 10.54.64.49 1.68.1 2.05-.54.45-.77.11-1.56-.54-2.05.17.13.05.04-.05-.04-.09-.07-.17-.14-.26-.21-.16-.13-.32-.27-.48-.4-.36-.31-.72-.63-1.07-.96a26.91 26.91 0 0 1-2.3-2.48c-1.33-1.63-2.42-3.47-3.3-5.37-.34-.74-1.4-.92-2.05-.54-.75.44-.88 1.31-.54 2.05ZM568.8 861.74c.44.7.12 1.64-.54 2.06-4.86 3.02-10.36 4.94-16.08 5.32-5.75.38-11.45-.92-16.69-3.22-9.09-4-16.8-11.01-22.86-18.76-5.7-7.28-9.92-15.47-12.22-24.45-.82-3.22-1.37-6.43-1.54-9.74l-.54-10.2c-.37-7.06-.74-14.11-1.12-21.17-.6-11.53-1.21-23.05-1.82-34.58-.08-1.6-.16-3.21-.25-4.81-1.03.67-2.06 1.33-3.11 1.96-.01.01-.02.01-.03.02-13.13 7.98-27.81 13.59-43.05 15.77-13.04 1.87-26.54 1.34-39.19-2.5-10.9-3.31-21.27-9.15-28.83-17.79-8.94-10.22-12.88-23.52-13.23-36.92-.23-8.95 1-17.99 3.35-26.63.51-1.86 3.41-1.07 2.9.8-.15.52-.29 1.05-.42 1.58-2.35 9.23-3.38 18.87-2.61 28.38 1.03 12.64 5.79 24.77 14.99 33.68 8.06 7.81 18.53 12.72 29.37 15.28 12.71 2.99 26.11 2.79 38.87.19 14.92-3.04 28.99-9.3 41.59-17.81 1-.67 2.2.24 2.26 1.3.03.5.05 1 .08 1.5.1 2 .21 4 .31 6 .67 12.63 1.33 25.26 2 37.9.36 6.8.72 13.6 1.07 20.4.18 3.32.22 6.68.54 9.99.27 2.91 1.05 5.86 1.87 8.66 2.44 8.4 6.7 16.09 12.28 22.81 6.07 7.3 13.69 13.95 22.7 17.29 4.57 1.7 9.41 2.46 14.27 1.99 4.34-.42 8.5-1.9 12.27-4.05-2.02-3.18-4.04-6.34-6.07-9.51-4.72-7.4-9.45-14.81-14.17-22.21-2.39-3.74-4.77-7.47-7.16-11.21-.57-.9-1.34-1.83-1.79-2.8-.37-.83-.03-1.67.16-2.5.45-1.96.89-3.91 1.32-5.87 3.58-16.02 6.87-32.11 9.87-48.25.78-4.21 1.55-8.42 2.29-12.64.35-2 .7-4 1.04-6 1.85-10.75 3.57-21.53 5.17-32.32 2.42-16.4 4.54-32.85 6.37-49.33a1447.46 1447.46 0 0 0 3.47-35.51c.08-.92.21-.86-.21-1.73-.27-.56-.55-1.12-.86-1.66-.75-1.33-1.61-2.61-2.61-3.77-9.58-11.12-25.37-6.19-36.93-1.34-11.74 4.92-21.4 13.49-30.85 21.8-11.6 10.21-22.65 21-33.47 32.03-5.23 5.34-10.36 11.37-16.9 15.17-9.78 5.66-21.5 6.9-32.56 5.66-1.9-.21-1.92-3.22 0-3 3.49.39 6.99.56 10.5.4 8.03-.36 16.3-2.51 22.94-7.19 2.32-1.63 4.51-3.71 6.61-5.77 3.23-3.18 6.36-6.46 9.54-9.68 10.04-10.19 20.31-20.13 31.04-29.58 8.75-7.7 17.67-15.68 28.21-20.87 4.73-2.33 9.77-4.14 14.84-5.58 5.92-1.69 12.34-2.65 18.39-1 5.94 1.62 10.74 5.77 13.76 11.07.57.99 1.35 2.18 1.62 3.3.19.81-.07 1.82-.14 2.64-.08.9-.15 1.8-.23 2.7-.31 3.47-.62 6.95-.95 10.42A1386.285 1386.285 0 0 1 553.91 741c-.34 2-.69 4-1.04 6-4.01 22.85-8.61 45.6-13.77 68.22 9.9 15.51 19.8 31.02 29.7 46.52Z"/><path d="M467 618.5c-.02 13.67-.05 27.35-.07 41.02 0 1.93 3 1.93 3 0 .02-13.67.05-27.35.07-41.02 0-1.93-3-1.93-3 0Z" class="cls-3"/><path d="M520.2 642.74c-11.64 22.65-19.64 47.12-23.15 72.36-1.12 8.09-1.81 16.23-2.05 24.4-.06 1.93 2.94 1.93 3 0 .79-27.04 6.66-53.78 17.09-78.73 2.34-5.6 4.93-11.11 7.7-16.51.88-1.71-1.71-3.23-2.59-1.51Z"/><path d="M467 365.5v173c0 1.93 3 1.93 3 0v-173c0-1.93-3-1.93-3 0Z" class="cls-3"/><path d="M553 737c-2.57 1.55-15.49 8.94-32 5-15.08-3.6-23.07-14.27-25-17a1520.196 1520.196 0 0 0 5 91 63.37 63.37 0 0 0 3.92 15.37c2.14 5.42 11.53 29.67 34.08 34.63 13.61 2.99 24.91-1.95 29-4-4.33-6.76-8.67-13.76-13-21a819.491 819.491 0 0 1-16-28c4.67-25.33 9.33-50.67 14-76Z"/><path d="M455.02 586.68c8.17 4.83 16.33 9.67 24.5 14.5 2.16 1.28 4.13-2.09 1.97-3.37-8.17-4.83-16.33-9.67-24.5-14.5-2.16-1.28-4.13 2.09-1.97 3.37Z" class="cls-2"/><circle cx="528" cy="743" r="4" class="cls-3"/><path d="m528.16 745.99 11.77-.84c1.1-.08 1.88-1.1 1.67-2.19l-1.11-5.54a1.822 1.822 0 0 0-2.66-1.25c-3.61 1.94-7.21 3.88-10.82 5.83l1.16 3.99Z" class="cls-3"/><path d="m528.47 745.99-11.77-.84c-1.1-.08-1.88-1.1-1.67-2.19l1.11-5.54a1.822 1.822 0 0 1 2.66-1.25c3.61 1.94 7.21 3.88 10.82 5.83l-1.16 3.99Z" class="cls-3"/><circle cx="589" cy="793" r="4" class="cls-3"/><path d="m589.16 795.99 11.77-.84c1.1-.08 1.88-1.1 1.67-2.19l-1.11-5.54a1.822 1.822 0 0 0-2.66-1.25c-3.61 1.94-7.21 3.88-10.82 5.83l1.16 3.99Z" class="cls-3"/><path d="m589.47 795.99-11.77-.84c-1.1-.08-1.88-1.1-1.67-2.19l1.11-5.54a1.822 1.822 0 0 1 2.66-1.25c3.61 1.94 7.21 3.88 10.82 5.83l-1.16 3.99Z" class="cls-3"/><path d="M437.05 402.1c-1.36 7.27-5.47 13.79-11.78 17.76-3.95 2.48-8.76 4.02-13.19 4.37-1.91.15-1.93 3.15 0 3 10.24-.8 19.93-6.41 24.82-15.6a30.62 30.62 0 0 0 3.05-8.73c.35-1.89-2.54-2.7-2.89-.8ZM373.77 431.61c-4.48 19.66.91 40.6 14.3 55.67 3.97 4.47 8.61 8.34 13.67 11.51 1.64 1.03 3.15-1.56 1.51-2.59-17.17-10.79-27.99-29.9-28.09-50.23-.02-4.57.47-9.11 1.49-13.56.43-1.88-2.46-2.68-2.89-.8Z"/></svg>