<svg xmlns="http://www.w3.org/2000/svg" id="Layer_1" viewBox="1087.92 486.01 705.89 262.95"><defs><style>.cls-1{fill:#fff;}.cls-2{fill:#15f5ba;}</style></defs><path class="cls-1" d="M1322.41,678.19c-1.55-1.55-2.33-3.46-2.33-5.74v-104.95c0-2.38.78-4.31,2.33-5.81,1.55-1.5,3.46-2.25,5.74-2.25s4.31.75,5.81,2.25c1.5,1.5,2.25,3.44,2.25,5.81v44.49h71.93v-44.49c0-2.38.77-4.31,2.32-5.81,1.55-1.5,3.46-2.25,5.74-2.25s4.16.75,5.66,2.25c1.5,1.5,2.25,3.44,2.25,5.81v104.95c0,2.38-.75,4.32-2.25,5.81-1.5,1.5-3.39,2.25-5.66,2.25s-4.19-.77-5.74-2.33-2.32-3.46-2.32-5.74v-46.2h-71.93v46.2c0,2.27-.75,4.19-2.25,5.74-1.5,1.55-3.44,2.33-5.81,2.33s-4.19-.77-5.74-2.33Z"></path><path class="cls-1" d="M1542.54,672.61c0,2.17-.78,4.03-2.33,5.58s-3.46,2.33-5.74,2.33c-1.55,0-3.02-.44-4.42-1.32-1.39-.88-2.4-2.09-3.02-3.64l-8.68-21.7h-55.65l-8.84,21.7c-.72,1.55-1.76,2.77-3.1,3.64-1.34.88-2.79,1.32-4.34,1.32-2.27,0-4.16-.8-5.66-2.4-1.5-1.6-2.25-3.49-2.25-5.66,0-1.03.26-2.22.77-3.57l43.56-104.02c1.55-3.62,4.08-5.43,7.6-5.43,3.72,0,6.25,1.81,7.6,5.43l43.72,104.33c.52,1.34.78,2.48.78,3.41ZM1468.13,640.52h44.8l-22.17-55.19-22.63,55.19Z"></path><path class="cls-1" d="M1567.42,675.24c-8.22-4.55-13.87-10.49-16.97-17.83-.52-1.24-.78-2.27-.78-3.1,0-1.55.57-2.92,1.71-4.11,1.14-1.19,2.69-1.99,4.65-2.4.31-.1.83-.15,1.55-.15,1.65,0,3.23.49,4.73,1.47,1.5.98,2.61,2.3,3.33,3.95,1.86,4.03,5.53,7.44,11.01,10.23,5.48,2.79,11.52,4.19,18.14,4.19,7.75,0,14.31-1.78,19.69-5.35,5.37-3.57,8.06-8.45,8.06-14.65s-2.27-10.93-6.82-15.11c-4.55-4.19-11.47-6.74-20.77-7.67-12.82-1.24-22.89-4.99-30.23-11.24-7.34-6.25-11.01-14.08-11.01-23.49,0-6.61,1.88-12.32,5.66-17.13,3.77-4.81,8.94-8.47,15.5-11.01,6.56-2.53,13.93-3.8,22.09-3.8,8.89,0,16.38,1.81,22.48,5.43,6.1,3.62,11.26,8.79,15.5,15.5,1.24,1.96,1.86,3.82,1.86,5.58,0,2.27-1.03,4.13-3.1,5.58-1.14.72-2.48,1.08-4.03,1.08s-3-.39-4.34-1.16c-1.34-.77-2.38-1.83-3.1-3.18-2.79-4.65-6.28-8.19-10.46-10.62-4.19-2.43-9.48-3.64-15.89-3.64-7.86,0-14.21,1.53-19.07,4.57-4.86,3.05-7.29,7.47-7.29,13.25,0,5.37,2.17,9.87,6.51,13.49,4.34,3.62,12.09,5.99,23.25,7.13,12.4,1.24,22.01,4.99,28.83,11.24,6.82,6.25,10.23,14.49,10.23,24.73,0,7.44-2.02,13.82-6.05,19.15-4.03,5.32-9.38,9.3-16.04,11.94-6.67,2.64-13.82,3.95-21.47,3.95-10.03,0-19.15-2.27-27.36-6.82Z"></path><path class="cls-1" d="M1661.44,678.19c-1.55-1.55-2.33-3.46-2.33-5.74v-104.95c0-2.38.78-4.31,2.33-5.81,1.55-1.5,3.46-2.25,5.74-2.25s4.31.75,5.81,2.25c1.5,1.5,2.25,3.44,2.25,5.81v44.49h71.93v-44.49c0-2.38.77-4.31,2.32-5.81,1.55-1.5,3.46-2.25,5.74-2.25s4.16.75,5.66,2.25c1.5,1.5,2.25,3.44,2.25,5.81v104.95c0,2.38-.75,4.32-2.25,5.81-1.5,1.5-3.39,2.25-5.66,2.25s-4.19-.77-5.74-2.33-2.32-3.46-2.32-5.74v-46.2h-71.93v46.2c0,2.27-.75,4.19-2.25,5.74-1.5,1.55-3.44,2.33-5.81,2.33s-4.19-.77-5.74-2.33Z"></path><path class="cls-2" d="M1322.6,541.4c-2.18-1.2-3.75-2.83-4.7-4.87-.12-.21-.18-.45-.18-.71,0-.42.16-.76.47-1.05.31-.28.74-.42,1.27-.42.36,0,.69.1,1,.29.31.19.54.47.69.82.68,1.34,1.82,2.41,3.41,3.23,1.59.82,3.44,1.22,5.54,1.22,2.43,0,4.39-.59,5.88-1.76,1.48-1.17,2.23-2.81,2.23-4.92,0-1.87-.69-3.44-2.07-4.72-1.38-1.28-3.45-2.09-6.21-2.45-3.44-.42-6.15-1.49-8.12-3.23-1.97-1.74-2.96-3.87-2.96-6.39,0-1.78.48-3.35,1.45-4.7.96-1.35,2.3-2.39,4.01-3.12,1.71-.73,3.64-1.09,5.81-1.09,2.34,0,4.41.52,6.19,1.56,1.78,1.04,3.18,2.39,4.18,4.05.21.33.31.68.31,1.07,0,.56-.27,1.01-.8,1.34-.24.12-.5.18-.8.18-.33,0-.63-.08-.91-.24-.28-.16-.51-.39-.69-.69-1.66-2.61-4.17-3.93-7.52-3.96-2.4,0-4.3.51-5.7,1.51-1.39,1.01-2.09,2.45-2.09,4.32,0,3.47,2.8,5.58,8.41,6.32,3.68.53,6.42,1.66,8.24,3.38,1.81,1.72,2.72,3.99,2.72,6.81,0,2.08-.5,3.87-1.51,5.39-1.01,1.51-2.39,2.66-4.14,3.45s-3.71,1.18-5.88,1.18c-2.82,0-5.32-.6-7.5-1.8Z"></path><path class="cls-2" d="M1372.35,508.43c.3.3.45.68.45,1.16,0,.45-.15.82-.45,1.11s-.68.45-1.16.45h-10.6v29.87c0,.48-.16.88-.49,1.22-.33.34-.74.51-1.25.51-.48,0-.88-.17-1.22-.51-.34-.34-.51-.75-.51-1.22v-29.87h-10.55c-.48,0-.86-.15-1.16-.45-.3-.3-.45-.67-.45-1.11,0-.47.15-.86.45-1.16s.68-.44,1.16-.44h24.62c.47,0,.86.15,1.16.44Z"></path><path class="cls-2" d="M1385.7,541.91c-2.11-1.04-3.75-2.48-4.92-4.34-1.17-1.85-1.76-3.95-1.76-6.3v-21.55c0-.5.16-.92.49-1.25.33-.33.74-.49,1.25-.49s.92.16,1.25.49c.33.33.49.74.49,1.25v21.55c0,1.72.44,3.26,1.31,4.61.88,1.35,2.1,2.4,3.67,3.16,1.57.76,3.37,1.13,5.39,1.13s3.75-.38,5.3-1.13c1.54-.76,2.75-1.81,3.63-3.16.87-1.35,1.31-2.89,1.31-4.61v-21.55c0-.5.16-.92.49-1.25s.74-.49,1.25-.49.92.16,1.25.49.49.74.49,1.25v21.55c0,2.34-.59,4.44-1.76,6.3-1.17,1.86-2.8,3.3-4.88,4.34-2.08,1.04-4.44,1.56-7.08,1.56s-5.06-.52-7.17-1.56Z"></path><path class="cls-2" d="M1417.09,542.27c-.33-.33-.49-.74-.49-1.25v-31.3c0-.5.16-.92.49-1.25.33-.33.74-.49,1.25-.49h8.01c3.35,0,6.35.74,8.99,2.23,2.64,1.48,4.7,3.54,6.17,6.17,1.47,2.63,2.2,5.62,2.2,8.97s-.73,6.35-2.2,8.99c-1.47,2.64-3.52,4.7-6.17,6.19-2.64,1.48-5.64,2.23-8.99,2.23h-8.01c-.5,0-.92-.16-1.25-.49ZM1426.35,539.64c2.7,0,5.1-.62,7.21-1.85,2.11-1.23,3.75-2.93,4.94-5.1,1.19-2.17,1.78-4.62,1.78-7.35s-.59-5.18-1.78-7.35c-1.19-2.17-2.83-3.86-4.94-5.08-2.11-1.22-4.51-1.83-7.21-1.83h-6.28v28.54h6.28Z"></path><path class="cls-2" d="M1452.5,542.24c-.34-.34-.51-.75-.51-1.22v-31.3c0-.5.17-.92.51-1.25.34-.33.75-.49,1.22-.49.5,0,.92.16,1.25.49.33.33.49.74.49,1.25v31.3c0,.48-.16.88-.49,1.22-.33.34-.74.51-1.25.51-.48,0-.88-.17-1.22-.51Z"></path><path class="cls-2" d="M1472.42,540.88c-2.7-1.54-4.82-3.67-6.34-6.39-1.53-2.72-2.29-5.77-2.29-9.15s.76-6.43,2.29-9.13c1.53-2.7,3.64-4.82,6.34-6.37,2.7-1.54,5.74-2.31,9.13-2.31s6.39.77,9.1,2.31c2.72,1.54,4.84,3.67,6.37,6.37,1.53,2.7,2.29,5.74,2.29,9.13s-.76,6.43-2.29,9.15c-1.53,2.72-3.65,4.85-6.37,6.39-2.72,1.54-5.75,2.32-9.1,2.32s-6.43-.77-9.13-2.32ZM1488.87,537.99c2.18-1.28,3.9-3.02,5.14-5.23,1.25-2.21,1.87-4.68,1.87-7.41s-.62-5.16-1.87-7.37c-1.25-2.21-2.96-3.95-5.14-5.23-2.18-1.28-4.62-1.91-7.32-1.91s-5.19.64-7.37,1.91c-2.18,1.28-3.9,3.02-5.14,5.23-1.25,2.21-1.87,4.67-1.87,7.37s.62,5.2,1.87,7.41c1.25,2.21,2.96,3.96,5.14,5.23,2.18,1.28,4.64,1.91,7.37,1.91s5.14-.64,7.32-1.91Z"></path><path class="cls-2" d="M1213.2,540.85c0,2.03-.67,3.93-1.88,5.35-1.37,1.6-3.33,2.45-5.65,2.45h-54.51v54.51c0,5.18-4.03,7.54-7.78,7.54s-7.79-2.36-7.79-7.54v-62.3c0-2.25.8-4.17,2.31-5.53,1.34-1.47,3.25-2.25,5.48-2.25h62.3c5.18,0,7.54,4.03,7.54,7.78Z"></path><path class="cls-2" d="M1181.94,490.43c-49.15,0-89,39.85-89,89s39.85,89,89,89,89-39.85,89-89-39.85-89-89-89ZM1211.1,498.59c33.63,12.44,56.48,44.93,56.86,80.85,0,.11,0,.23,0,.35v.37c-.05,4.34-.42,8.7-1.11,13.32-5.33,34.96-33.34,64.15-68.14,70.99-35.86,7.05-72.54-9.12-91.27-40.24-18.7-31.08-15.68-71.05,7.54-99.46,16.43-20.14,41.56-31.35,66.98-31.35,9.83,0,19.71,1.68,29.13,5.17Z"></path><path class="cls-2" d="M1268.33,579.43c-.38-36.13-23.19-68.63-57.11-81.18-33.88-12.53-73.69-1.68-96.53,26.29-22.98,28.14-26.4,68.6-7.56,99.89,18.83,31.28,55.92,47.44,91.66,40.41,34.85-6.85,63.08-36.15,68.42-71.29.67-4.44,1.07-8.89,1.11-13.38,0-.06,0-.12,0-.19v-.19c0-.13,0-.25,0-.37ZM1267.96,580.17c-.04,4.34-.41,8.7-1.11,13.32-5.33,34.96-33.34,64.15-68.14,70.99-35.86,7.05-72.54-9.12-91.27-40.24-18.7-31.08-15.68-71.05,7.54-99.46,16.43-20.14,41.56-31.35,66.98-31.35,9.83,0,19.71,1.68,29.13,5.17,33.63,12.44,56.48,44.93,56.86,80.85,0,.11,0,.23,0,.35v.37ZM1268.33,579.43c-.38-36.13-23.19-68.63-57.11-81.18-33.88-12.53-73.69-1.68-96.53,26.29-22.98,28.14-26.4,68.6-7.56,99.89,18.83,31.28,55.92,47.44,91.66,40.41,34.85-6.85,63.08-36.15,68.42-71.29.67-4.44,1.07-8.89,1.11-13.38,0-.06,0-.12,0-.19v-.19c0-.13,0-.25,0-.37ZM1267.96,580.17c-.04,4.34-.41,8.7-1.11,13.32-5.33,34.96-33.34,64.15-68.14,70.99-35.86,7.05-72.54-9.12-91.27-40.24-18.7-31.08-15.68-71.05,7.54-99.46,16.43-20.14,41.56-31.35,66.98-31.35,9.83,0,19.71,1.68,29.13,5.17,33.63,12.44,56.48,44.93,56.86,80.85,0,.11,0,.23,0,.35v.37ZM1268.33,579.43c-.38-36.13-23.19-68.63-57.11-81.18-33.88-12.53-73.69-1.68-96.53,26.29-22.98,28.14-26.4,68.6-7.56,99.89,18.83,31.28,55.92,47.44,91.66,40.41,34.85-6.85,63.08-36.15,68.42-71.29.67-4.44,1.07-8.89,1.11-13.38,0-.06,0-.12,0-.19v-.19c0-.13,0-.25,0-.37ZM1267.96,580.17c-.04,4.34-.41,8.7-1.11,13.32-5.33,34.96-33.34,64.15-68.14,70.99-35.86,7.05-72.54-9.12-91.27-40.24-18.7-31.08-15.68-71.05,7.54-99.46,16.43-20.14,41.56-31.35,66.98-31.35,9.83,0,19.71,1.68,29.13,5.17,33.63,12.44,56.48,44.93,56.86,80.85,0,.11,0,.23,0,.35v.37ZM1268.33,579.43c-.38-36.13-23.19-68.63-57.11-81.18-33.88-12.53-73.69-1.68-96.53,26.29-22.98,28.14-26.4,68.6-7.56,99.89,18.83,31.28,55.92,47.44,91.66,40.41,34.85-6.85,63.08-36.15,68.42-71.29.67-4.44,1.07-8.89,1.11-13.38,0-.06,0-.12,0-.19v-.19c0-.13,0-.25,0-.37ZM1267.96,580.17c-.04,4.34-.41,8.7-1.11,13.32-5.33,34.96-33.34,64.15-68.14,70.99-35.86,7.05-72.54-9.12-91.27-40.24-18.7-31.08-15.68-71.05,7.54-99.46,16.43-20.14,41.56-31.35,66.98-31.35,9.83,0,19.71,1.68,29.13,5.17,33.63,12.44,56.48,44.93,56.86,80.85,0,.11,0,.23,0,.35v.37ZM1268.33,579.43c-.38-36.13-23.19-68.63-57.11-81.18-33.88-12.53-73.69-1.68-96.53,26.29-22.98,28.14-26.4,68.6-7.56,99.89,18.83,31.28,55.92,47.44,91.66,40.41,34.85-6.85,63.08-36.15,68.42-71.29.67-4.44,1.07-8.89,1.11-13.38,0-.06,0-.12,0-.19v-.19c0-.13,0-.25,0-.37ZM1267.96,580.17c-.04,4.34-.41,8.7-1.11,13.32-5.33,34.96-33.34,64.15-68.14,70.99-35.86,7.05-72.54-9.12-91.27-40.24-18.7-31.08-15.68-71.05,7.54-99.46,16.43-20.14,41.56-31.35,66.98-31.35,9.83,0,19.71,1.68,29.13,5.17,33.63,12.44,56.48,44.93,56.86,80.85,0,.11,0,.23,0,.35v.37ZM1268.33,579.43c-.38-36.13-23.19-68.63-57.11-81.18-33.88-12.53-73.69-1.68-96.53,26.29-22.98,28.14-26.4,68.6-7.56,99.89,18.83,31.28,55.92,47.44,91.66,40.41,34.85-6.85,63.08-36.15,68.42-71.29.67-4.44,1.07-8.89,1.11-13.38,0-.06,0-.12,0-.19v-.19c0-.13,0-.25,0-.37ZM1267.96,580.17c-.04,4.34-.41,8.7-1.11,13.32-5.33,34.96-33.34,64.15-68.14,70.99-35.86,7.05-72.54-9.12-91.27-40.24-18.7-31.08-15.68-71.05,7.54-99.46,16.43-20.14,41.56-31.35,66.98-31.35,9.83,0,19.71,1.68,29.13,5.17,33.63,12.44,56.48,44.93,56.86,80.85,0,.11,0,.23,0,.35v.37ZM1268.33,579.43c-.38-36.13-23.19-68.63-57.11-81.18-33.88-12.53-73.69-1.68-96.53,26.29-22.98,28.14-26.4,68.6-7.56,99.89,18.83,31.28,55.92,47.44,91.66,40.41,34.85-6.85,63.08-36.15,68.42-71.29.67-4.44,1.07-8.89,1.11-13.38,0-.06,0-.12,0-.19v-.19c0-.13,0-.25,0-.37ZM1267.96,580.17c-.04,4.34-.41,8.7-1.11,13.32-5.33,34.96-33.34,64.15-68.14,70.99-35.86,7.05-72.54-9.12-91.27-40.24-18.7-31.08-15.68-71.05,7.54-99.46,16.43-20.14,41.56-31.35,66.98-31.35,9.83,0,19.71,1.68,29.13,5.17,33.63,12.44,56.48,44.93,56.86,80.85,0,.11,0,.23,0,.35v.37ZM1268.33,579.43c-.38-36.13-23.19-68.63-57.11-81.18-33.88-12.53-73.69-1.68-96.53,26.29-22.98,28.14-26.4,68.6-7.56,99.89,18.83,31.28,55.92,47.44,91.66,40.41,34.85-6.85,63.08-36.15,68.42-71.29.67-4.44,1.07-8.89,1.11-13.38,0-.06,0-.12,0-.19v-.19c0-.13,0-.25,0-.37ZM1267.96,580.17c-.04,4.34-.41,8.7-1.11,13.32-5.33,34.96-33.34,64.15-68.14,70.99-35.86,7.05-72.54-9.12-91.27-40.24-18.7-31.08-15.68-71.05,7.54-99.46,16.43-20.14,41.56-31.35,66.98-31.35,9.83,0,19.71,1.68,29.13,5.17,33.63,12.44,56.48,44.93,56.86,80.85,0,.11,0,.23,0,.35v.37ZM1262.77,532.8c-8.25-14.31-20.17-26.23-34.46-34.49-12.04-6.95-25.77-11.31-40.41-12.3h-12.92c-14.59.99-28.26,5.32-40.26,12.22-14.36,8.26-26.33,20.22-34.61,34.58-6.77,11.74-11.07,25.08-12.19,39.31v14.98c1.12,14.23,5.42,27.57,12.19,39.31,8.28,14.35,20.25,26.31,34.61,34.58,12,6.9,25.68,11.24,40.26,12.22h100.13v-98.9c-.84-15.06-5.23-29.16-12.34-41.5ZM1268.7,580.1c-.04,4.45-.41,8.85-1.12,13.51-5.36,35.26-33.62,64.71-68.71,71.6-5.64,1.11-11.32,1.65-16.92,1.65-30.36,0-59.18-15.75-75.13-42.23-9.24-15.36-13.37-33.11-11.95-51.35,1.42-18.12,8.17-35.05,19.54-48.97,22.99-28.15,62.85-39.02,96.94-26.4,33.92,12.56,56.97,45.31,57.35,81.53,0,.1,0,.24,0,.37v.3ZM1211.22,498.24c-33.88-12.53-73.69-1.68-96.53,26.29-22.98,28.14-26.4,68.6-7.56,99.89,18.83,31.28,55.92,47.44,91.66,40.41,34.85-6.85,63.08-36.15,68.42-71.29.67-4.44,1.07-8.89,1.11-13.38,0-.06,0-.12,0-.19v-.19c0-.13,0-.25,0-.37-.38-36.13-23.19-68.63-57.11-81.18ZM1267.96,580.17c-.04,4.34-.41,8.7-1.11,13.32-5.33,34.96-33.34,64.15-68.14,70.99-35.86,7.05-72.54-9.12-91.27-40.24-18.7-31.08-15.68-71.05,7.54-99.46,16.43-20.14,41.56-31.35,66.98-31.35,9.83,0,19.71,1.68,29.13,5.17,33.63,12.44,56.48,44.93,56.86,80.85,0,.11,0,.23,0,.35v.37ZM1268.33,579.43c-.38-36.13-23.19-68.63-57.11-81.18-33.88-12.53-73.69-1.68-96.53,26.29-22.98,28.14-26.4,68.6-7.56,99.89,18.83,31.28,55.92,47.44,91.66,40.41,34.85-6.85,63.08-36.15,68.42-71.29.67-4.44,1.07-8.89,1.11-13.38,0-.06,0-.12,0-.19v-.19c0-.13,0-.25,0-.37ZM1267.96,580.17c-.04,4.34-.41,8.7-1.11,13.32-5.33,34.96-33.34,64.15-68.14,70.99-35.86,7.05-72.54-9.12-91.27-40.24-18.7-31.08-15.68-71.05,7.54-99.46,16.43-20.14,41.56-31.35,66.98-31.35,9.83,0,19.71,1.68,29.13,5.17,33.63,12.44,56.48,44.93,56.86,80.85,0,.11,0,.23,0,.35v.37ZM1268.33,579.43c-.38-36.13-23.19-68.63-57.11-81.18-33.88-12.53-73.69-1.68-96.53,26.29-22.98,28.14-26.4,68.6-7.56,99.89,18.83,31.28,55.92,47.44,91.66,40.41,34.85-6.85,63.08-36.15,68.42-71.29.67-4.44,1.07-8.89,1.11-13.38,0-.06,0-.12,0-.19v-.19c0-.13,0-.25,0-.37ZM1267.96,580.17c-.04,4.34-.41,8.7-1.11,13.32-5.33,34.96-33.34,64.15-68.14,70.99-35.86,7.05-72.54-9.12-91.27-40.24-18.7-31.08-15.68-71.05,7.54-99.46,16.43-20.14,41.56-31.35,66.98-31.35,9.83,0,19.71,1.68,29.13,5.17,33.63,12.44,56.48,44.93,56.86,80.85,0,.11,0,.23,0,.35v.37ZM1268.33,579.43c-.38-36.13-23.19-68.63-57.11-81.18-33.88-12.53-73.69-1.68-96.53,26.29-22.98,28.14-26.4,68.6-7.56,99.89,18.83,31.28,55.92,47.44,91.66,40.41,34.85-6.85,63.08-36.15,68.42-71.29.67-4.44,1.07-8.89,1.11-13.38,0-.06,0-.12,0-.19v-.19c0-.13,0-.25,0-.37ZM1267.96,580.17c-.04,4.34-.41,8.7-1.11,13.32-5.33,34.96-33.34,64.15-68.14,70.99-35.86,7.05-72.54-9.12-91.27-40.24-18.7-31.08-15.68-71.05,7.54-99.46,16.43-20.14,41.56-31.35,66.98-31.35,9.83,0,19.71,1.68,29.13,5.17,33.63,12.44,56.48,44.93,56.86,80.85,0,.11,0,.23,0,.35v.37ZM1268.33,579.43c-.38-36.13-23.19-68.63-57.11-81.18-33.88-12.53-73.69-1.68-96.53,26.29-22.98,28.14-26.4,68.6-7.56,99.89,18.83,31.28,55.92,47.44,91.66,40.41,34.85-6.85,63.08-36.15,68.42-71.29.67-4.44,1.07-8.89,1.11-13.38,0-.06,0-.12,0-.19v-.19c0-.13,0-.25,0-.37ZM1267.96,580.17c-.04,4.34-.41,8.7-1.11,13.32-5.33,34.96-33.34,64.15-68.14,70.99-35.86,7.05-72.54-9.12-91.27-40.24-18.7-31.08-15.68-71.05,7.54-99.46,16.43-20.14,41.56-31.35,66.98-31.35,9.83,0,19.71,1.68,29.13,5.17,33.63,12.44,56.48,44.93,56.86,80.85,0,.11,0,.23,0,.35v.37ZM1268.33,579.43c-.38-36.13-23.19-68.63-57.11-81.18-33.88-12.53-73.69-1.68-96.53,26.29-22.98,28.14-26.4,68.6-7.56,99.89,18.83,31.28,55.92,47.44,91.66,40.41,34.85-6.85,63.08-36.15,68.42-71.29.67-4.44,1.07-8.89,1.11-13.38,0-.06,0-.12,0-.19v-.19c0-.13,0-.25,0-.37ZM1267.96,580.17c-.04,4.34-.41,8.7-1.11,13.32-5.33,34.96-33.34,64.15-68.14,70.99-35.86,7.05-72.54-9.12-91.27-40.24-18.7-31.08-15.68-71.05,7.54-99.46,16.43-20.14,41.56-31.35,66.98-31.35,9.83,0,19.71,1.68,29.13,5.17,33.63,12.44,56.48,44.93,56.86,80.85,0,.11,0,.23,0,.35v.37ZM1268.33,579.43c-.38-36.13-23.19-68.63-57.11-81.18-33.88-12.53-73.69-1.68-96.53,26.29-22.98,28.14-26.4,68.6-7.56,99.89,18.83,31.28,55.92,47.44,91.66,40.41,34.85-6.85,63.08-36.15,68.42-71.29.67-4.44,1.07-8.89,1.11-13.38,0-.06,0-.12,0-.19v-.19c0-.13,0-.25,0-.37ZM1267.96,580.17c-.04,4.34-.41,8.7-1.11,13.32-5.33,34.96-33.34,64.15-68.14,70.99-35.86,7.05-72.54-9.12-91.27-40.24-18.7-31.08-15.68-71.05,7.54-99.46,16.43-20.14,41.56-31.35,66.98-31.35,9.83,0,19.71,1.68,29.13,5.17,33.63,12.44,56.48,44.93,56.86,80.85,0,.11,0,.23,0,.35v.37ZM1268.33,579.43c-.38-36.13-23.19-68.63-57.11-81.18-33.88-12.53-73.69-1.68-96.53,26.29-22.98,28.14-26.4,68.6-7.56,99.89,18.83,31.28,55.92,47.44,91.66,40.41,34.85-6.85,63.08-36.15,68.42-71.29.67-4.44,1.07-8.89,1.11-13.38,0-.06,0-.12,0-.19v-.19c0-.13,0-.25,0-.37ZM1267.96,580.17c-.04,4.34-.41,8.7-1.11,13.32-5.33,34.96-33.34,64.15-68.14,70.99-35.86,7.05-72.54-9.12-91.27-40.24-18.7-31.08-15.68-71.05,7.54-99.46,16.43-20.14,41.56-31.35,66.98-31.35,9.83,0,19.71,1.68,29.13,5.17,33.63,12.44,56.48,44.93,56.86,80.85,0,.11,0,.23,0,.35v.37ZM1268.33,579.43c-.38-36.13-23.19-68.63-57.11-81.18-33.88-12.53-73.69-1.68-96.53,26.29-22.98,28.14-26.4,68.6-7.56,99.89,18.83,31.28,55.92,47.44,91.66,40.41,34.85-6.85,63.08-36.15,68.42-71.29.67-4.44,1.07-8.89,1.11-13.38,0-.06,0-.12,0-.19v-.19c0-.13,0-.25,0-.37ZM1267.96,580.17c-.04,4.34-.41,8.7-1.11,13.32-5.33,34.96-33.34,64.15-68.14,70.99-35.86,7.05-72.54-9.12-91.27-40.24-18.7-31.08-15.68-71.05,7.54-99.46,16.43-20.14,41.56-31.35,66.98-31.35,9.83,0,19.71,1.68,29.13,5.17,33.63,12.44,56.48,44.93,56.86,80.85,0,.11,0,.23,0,.35v.37Z"></path><path class="cls-1" d="M1281.6,714.71c1.92,1.11,3.44,2.63,4.54,4.57,1.11,1.94,1.66,4.09,1.66,6.45s-.54,4.51-1.61,6.43c-1.08,1.92-2.55,3.44-4.41,4.54-1.86,1.11-3.95,1.66-6.25,1.66-1.97,0-3.77-.42-5.41-1.25-1.64-.83-2.98-1.98-4.04-3.43v13.32c0,.51-.17.94-.5,1.27-.33.33-.76.5-1.27.5s-.93-.17-1.25-.5c-.32-.33-.48-.76-.48-1.27v-10.18c-.03-.09-.05-.23-.05-.41v-10.68c0-2.36.55-4.51,1.66-6.45,1.11-1.94,2.62-3.46,4.54-4.57,1.92-1.11,4.07-1.66,6.43-1.66s4.51.55,6.43,1.66ZM1279.87,733.95c1.41-.82,2.51-1.95,3.32-3.39.8-1.44,1.2-3.05,1.2-4.84s-.4-3.4-1.2-4.84c-.8-1.44-1.91-2.57-3.32-3.41-1.41-.83-2.98-1.25-4.7-1.25s-3.29.42-4.68,1.25c-1.39.83-2.49,1.97-3.3,3.41-.8,1.44-1.2,3.05-1.2,4.84,0,.51.01.89.05,1.14.03.06.05.14.05.23.3,2.36,1.29,4.3,2.98,5.82,1.68,1.52,3.72,2.27,6.11,2.27,1.73,0,3.3-.41,4.7-1.23Z"></path><path class="cls-1" d="M1308.46,713.5c.74.33,1.11.8,1.11,1.41,0,.18-.02.32-.05.41-.12.42-.31.71-.57.86-.26.15-.61.23-1.07.23-.27,0-.74-.03-1.41-.09-.24-.03-.61-.05-1.09-.05-2.27,0-4.13.61-5.57,1.82-1.44,1.21-2.16,2.79-2.16,4.73v13.59c0,.55-.15.97-.45,1.27-.3.3-.73.45-1.27.45s-.97-.15-1.27-.45c-.3-.3-.45-.73-.45-1.27v-21.41c0-.55.15-.97.45-1.27.3-.3.73-.45,1.27-.45s.97.15,1.27.45c.3.3.45.73.45,1.27v2c.88-1.27,2-2.26,3.36-2.95,1.36-.7,2.83-1.05,4.41-1.05,1.27,0,2.28.17,3.02.5Z"></path><path class="cls-1" d="M1328.75,714.62c1.73,1.05,3.07,2.49,4.02,4.34.95,1.85,1.43,3.95,1.43,6.32,0,.49-.15.87-.45,1.16-.3.29-.7.43-1.18.43h-18.36c.24,2.48,1.21,4.5,2.91,6.04,1.7,1.54,3.82,2.32,6.36,2.32,1.09,0,2.19-.19,3.3-.57,1.11-.38,1.99-.86,2.66-1.43.39-.3.8-.45,1.23-.45.33,0,.67.12,1,.36.39.36.59.77.59,1.23,0,.39-.17.74-.5,1.05-1,.85-2.27,1.55-3.82,2.11s-3.03.84-4.45.84c-2.42,0-4.59-.54-6.5-1.61-1.91-1.07-3.4-2.57-4.48-4.5-1.08-1.92-1.61-4.1-1.61-6.52s.51-4.64,1.52-6.57c1.01-1.92,2.42-3.42,4.23-4.5,1.8-1.07,3.85-1.61,6.16-1.61s4.23.52,5.95,1.57ZM1317.07,718.32c-1.52,1.42-2.44,3.3-2.77,5.63h16.63c-.24-2.33-1.09-4.21-2.55-5.63s-3.32-2.14-5.59-2.14-4.21.71-5.73,2.14Z"></path><path class="cls-1" d="M1343.47,736.7c-1.88-1.11-3.36-2.62-4.43-4.54-1.08-1.92-1.61-4.07-1.61-6.43s.51-4.6,1.55-6.52c1.03-1.92,2.45-3.43,4.27-4.52s3.86-1.64,6.14-1.64c3.79,0,6.86,1.45,9.23,4.36.24.27.36.59.36.95,0,.49-.26.91-.77,1.27-.27.18-.56.27-.86.27-.45,0-.89-.23-1.32-.68-.91-1-1.91-1.75-3-2.25-1.09-.5-2.3-.75-3.64-.75-1.67,0-3.15.4-4.45,1.2-1.3.8-2.31,1.93-3.02,3.39-.71,1.45-1.07,3.09-1.07,4.91s.38,3.4,1.14,4.84c.76,1.44,1.82,2.57,3.18,3.39,1.36.82,2.92,1.23,4.68,1.23,2.42,0,4.38-.65,5.86-1.95.39-.33.8-.5,1.23-.5.36,0,.7.12,1,.36.42.36.64.77.64,1.23,0,.39-.15.73-.45,1-2.18,2.03-4.94,3.04-8.27,3.04-2.36,0-4.48-.55-6.36-1.66Z"></path><path class="cls-1" d="M1366.08,707.82c-.47-.48-.7-1.08-.7-1.77s.24-1.32.73-1.77c.48-.45,1.08-.68,1.77-.68s1.24.23,1.73.68c.48.45.73,1.05.73,1.77s-.24,1.29-.73,1.77c-.49.48-1.08.73-1.77.73s-1.28-.24-1.75-.73ZM1366.61,737.64c-.33-.33-.5-.76-.5-1.27v-21.31c0-.51.17-.94.5-1.27.33-.33.76-.5,1.27-.5s.93.17,1.25.5.48.76.48,1.27v21.31c0,.52-.16.94-.48,1.27-.32.33-.74.5-1.25.5s-.94-.17-1.27-.5Z"></path><path class="cls-1" d="M1381.33,737.41c-1.73-.64-3.12-1.53-4.18-2.68-.3-.36-.45-.71-.45-1.05,0-.51.24-.97.73-1.36.36-.27.74-.41,1.14-.41.51,0,.95.21,1.32.64.73.85,1.69,1.5,2.89,1.95,1.2.45,2.52.68,3.98.68,2.12,0,3.71-.36,4.77-1.09,1.06-.73,1.61-1.68,1.64-2.86,0-1.09-.53-2-1.59-2.73-1.06-.73-2.74-1.27-5.04-1.64-2.97-.48-5.19-1.32-6.66-2.52-1.47-1.2-2.2-2.64-2.2-4.34,0-2.21.86-3.92,2.57-5.14,1.71-1.21,3.86-1.82,6.43-1.82,2,0,3.74.34,5.23,1.02,1.48.68,2.68,1.63,3.59,2.84.24.39.36.74.36,1.05,0,.51-.24.92-.73,1.23-.21.15-.5.23-.86.23-.64,0-1.17-.23-1.59-.68-1.48-1.7-3.51-2.55-6.09-2.55-1.67,0-3,.34-4,1.02-1,.68-1.5,1.54-1.5,2.57,0,1.09.47,1.96,1.41,2.61.94.65,2.61,1.17,5,1.57,3.24.55,5.56,1.43,6.95,2.66,1.39,1.23,2.09,2.75,2.09,4.57,0,1.39-.42,2.64-1.25,3.73-.83,1.09-1.99,1.94-3.48,2.55-1.49.61-3.17.91-5.05.91s-3.68-.32-5.41-.95Z"></path><path class="cls-1" d="M1402.8,707.82c-.47-.48-.7-1.08-.7-1.77s.24-1.32.73-1.77c.48-.45,1.08-.68,1.77-.68s1.24.23,1.73.68c.48.45.73,1.05.73,1.77s-.24,1.29-.73,1.77c-.49.48-1.08.73-1.77.73s-1.28-.24-1.75-.73ZM1403.33,737.64c-.33-.33-.5-.76-.5-1.27v-21.31c0-.51.17-.94.5-1.27.33-.33.76-.5,1.27-.5s.93.17,1.25.5c.32.33.48.76.48,1.27v21.31c0,.52-.16.94-.48,1.27-.32.33-.74.5-1.25.5s-.94-.17-1.27-.5Z"></path><path class="cls-1" d="M1419.62,736.73c-1.92-1.09-3.43-2.6-4.52-4.52-1.09-1.92-1.64-4.08-1.64-6.48s.55-4.56,1.64-6.5,2.6-3.45,4.52-4.54c1.92-1.09,4.08-1.64,6.48-1.64s4.54.55,6.45,1.64c1.91,1.09,3.42,2.61,4.52,4.54,1.11,1.94,1.66,4.11,1.66,6.5s-.55,4.55-1.64,6.48c-1.09,1.92-2.6,3.43-4.52,4.52-1.93,1.09-4.08,1.64-6.48,1.64s-4.55-.55-6.48-1.64ZM1430.82,733.95c1.39-.82,2.48-1.95,3.27-3.39.79-1.44,1.18-3.05,1.18-4.84s-.39-3.45-1.18-4.89c-.79-1.44-1.88-2.57-3.27-3.39-1.39-.82-2.97-1.23-4.73-1.23s-3.29.41-4.7,1.23c-1.41.82-2.51,1.95-3.32,3.39-.8,1.44-1.2,3.07-1.2,4.89s.4,3.4,1.2,4.84c.8,1.44,1.91,2.57,3.32,3.39,1.41.82,2.98,1.23,4.7,1.23s3.33-.41,4.73-1.23Z"></path><path class="cls-1" d="M1462.65,714.37c1.71.91,3.05,2.24,4.02,3.98.97,1.74,1.45,3.83,1.45,6.25v11.82c0,.48-.17.89-.5,1.23s-.74.5-1.23.5c-.52,0-.94-.17-1.27-.5-.33-.33-.5-.74-.5-1.23v-11.82c0-2.7-.75-4.75-2.25-6.16-1.5-1.41-3.46-2.11-5.89-2.11-1.48,0-2.83.29-4.02.86-1.2.58-2.14,1.37-2.84,2.39-.7,1.02-1.05,2.14-1.05,3.39v13.45c0,.51-.16.93-.48,1.25s-.74.48-1.25.48-.94-.16-1.27-.48c-.33-.32-.5-.73-.5-1.25v-21.36c0-.51.17-.94.5-1.27.33-.33.76-.5,1.27-.5s.93.17,1.25.5.48.76.48,1.27v1.54c1-1.12,2.21-2,3.64-2.64,1.42-.64,2.97-.95,4.64-.95,2.15,0,4.08.45,5.79,1.36Z"></path><path class="cls-1" d="M1488.97,707.82c-.47-.48-.7-1.08-.7-1.77s.24-1.32.73-1.77c.48-.45,1.08-.68,1.77-.68s1.24.23,1.73.68c.48.45.73,1.05.73,1.77s-.24,1.29-.73,1.77c-.49.48-1.08.73-1.77.73s-1.28-.24-1.75-.73ZM1489.49,737.64c-.33-.33-.5-.76-.5-1.27v-21.31c0-.51.17-.94.5-1.27.33-.33.76-.5,1.27-.5s.93.17,1.25.5.48.76.48,1.27v21.31c0,.52-.16.94-.48,1.27-.32.33-.74.5-1.25.5s-.94-.17-1.27-.5Z"></path><path class="cls-1" d="M1518.51,714.37c1.71.91,3.05,2.24,4.02,3.98.97,1.74,1.45,3.83,1.45,6.25v11.82c0,.48-.17.89-.5,1.23s-.74.5-1.23.5c-.52,0-.94-.17-1.27-.5-.33-.33-.5-.74-.5-1.23v-11.82c0-2.7-.75-4.75-2.25-6.16-1.5-1.41-3.46-2.11-5.89-2.11-1.48,0-2.83.29-4.02.86-1.2.58-2.14,1.37-2.84,2.39-.7,1.02-1.05,2.14-1.05,3.39v13.45c0,.51-.16.93-.48,1.25s-.74.48-1.25.48-.94-.16-1.27-.48c-.33-.32-.5-.73-.5-1.25v-21.36c0-.51.17-.94.5-1.27.33-.33.76-.5,1.27-.5s.93.17,1.25.5.48.76.48,1.27v1.54c1-1.12,2.21-2,3.64-2.64,1.42-.64,2.97-.95,4.64-.95,2.15,0,4.08.45,5.79,1.36Z"></path><path class="cls-1" d="M1560.66,714.62c1.73,1.05,3.07,2.49,4.02,4.34.95,1.85,1.43,3.95,1.43,6.32,0,.49-.15.87-.45,1.16-.3.29-.7.43-1.18.43h-18.36c.24,2.48,1.21,4.5,2.91,6.04,1.7,1.54,3.82,2.32,6.36,2.32,1.09,0,2.19-.19,3.29-.57s1.99-.86,2.66-1.43c.39-.3.8-.45,1.23-.45.33,0,.67.12,1,.36.39.36.59.77.59,1.23,0,.39-.17.74-.5,1.05-1,.85-2.27,1.55-3.82,2.11-1.54.56-3.03.84-4.45.84-2.42,0-4.59-.54-6.5-1.61-1.91-1.07-3.4-2.57-4.48-4.5-1.08-1.92-1.61-4.1-1.61-6.52s.51-4.64,1.52-6.57c1.01-1.92,2.42-3.42,4.23-4.5,1.8-1.07,3.86-1.61,6.16-1.61s4.23.52,5.95,1.57ZM1548.98,718.32c-1.52,1.42-2.44,3.3-2.77,5.63h16.63c-.24-2.33-1.09-4.21-2.55-5.63s-3.32-2.14-5.59-2.14-4.21.71-5.73,2.14Z"></path><path class="cls-1" d="M1590.97,714.87c0,.18-.05.39-.14.64l-9.95,21.45c-.39.79-.97,1.18-1.73,1.18s-1.27-.39-1.64-1.18l-10.09-21.41c-.09-.18-.14-.39-.14-.64,0-.64.33-1.12,1-1.45.21-.12.45-.18.73-.18.3,0,.58.08.84.23.26.15.45.38.57.68l8.73,18.91,8.64-18.91c.12-.3.32-.54.59-.7.27-.17.58-.25.91-.25.27,0,.51.06.73.18.64.3.95.79.95,1.45Z"></path><path class="cls-1" d="M1610.7,714.62c1.73,1.05,3.07,2.49,4.02,4.34.95,1.85,1.43,3.95,1.43,6.32,0,.49-.15.87-.45,1.16-.3.29-.7.43-1.18.43h-18.36c.24,2.48,1.21,4.5,2.91,6.04,1.7,1.54,3.82,2.32,6.36,2.32,1.09,0,2.19-.19,3.29-.57s1.99-.86,2.66-1.43c.39-.3.8-.45,1.23-.45.33,0,.67.12,1,.36.39.36.59.77.59,1.23,0,.39-.17.74-.5,1.05-1,.85-2.27,1.55-3.82,2.11-1.54.56-3.03.84-4.45.84-2.42,0-4.59-.54-6.5-1.61-1.91-1.07-3.4-2.57-4.48-4.5-1.08-1.92-1.61-4.1-1.61-6.52s.51-4.64,1.52-6.57c1.01-1.92,2.42-3.42,4.23-4.5,1.8-1.07,3.86-1.61,6.16-1.61s4.23.52,5.95,1.57ZM1599.02,718.32c-1.52,1.42-2.44,3.3-2.77,5.63h16.63c-.24-2.33-1.09-4.21-2.55-5.63s-3.32-2.14-5.59-2.14-4.21.71-5.73,2.14Z"></path><path class="cls-1" d="M1635.85,713.5c.74.33,1.11.8,1.11,1.41,0,.18-.02.32-.04.41-.12.42-.31.71-.57.86-.26.15-.61.23-1.07.23-.27,0-.74-.03-1.41-.09-.24-.03-.61-.05-1.09-.05-2.27,0-4.13.61-5.57,1.82-1.44,1.21-2.16,2.79-2.16,4.73v13.59c0,.55-.15.97-.45,1.27-.3.3-.73.45-1.27.45s-.97-.15-1.27-.45c-.3-.3-.45-.73-.45-1.27v-21.41c0-.55.15-.97.45-1.27s.73-.45,1.27-.45.97.15,1.27.45c.3.3.45.73.45,1.27v2c.88-1.27,2-2.26,3.36-2.95,1.36-.7,2.83-1.05,4.41-1.05,1.27,0,2.28.17,3.02.5Z"></path><path class="cls-1" d="M1662.46,714.73c0,.27-.06.55-.18.82l-14.73,32.36c-.27.7-.71,1.05-1.32,1.05-.3,0-.58-.06-.82-.18-.7-.27-1.05-.73-1.05-1.36,0-.27.06-.55.18-.82l4.5-9.95v-.04l-10.13-21c-.12-.24-.18-.51-.18-.82,0-.64.33-1.09,1-1.36.24-.12.51-.18.82-.18.64,0,1.09.32,1.36.95l8.86,18.68,8.45-18.63c.3-.67.76-1,1.36-1,.27,0,.55.06.82.18.7.27,1.05.71,1.05,1.32Z"></path><path class="cls-2" d="M1698.34,714.71c1.92,1.11,3.44,2.63,4.54,4.57,1.11,1.94,1.66,4.09,1.66,6.45s-.54,4.51-1.61,6.43c-1.08,1.92-2.55,3.44-4.41,4.54-1.86,1.11-3.95,1.66-6.25,1.66-1.97,0-3.77-.42-5.41-1.25-1.64-.83-2.98-1.98-4.04-3.43v13.32c0,.51-.17.94-.5,1.27-.33.33-.76.5-1.27.5s-.93-.17-1.25-.5c-.32-.33-.48-.76-.48-1.27v-10.18c-.03-.09-.05-.23-.05-.41v-10.68c0-2.36.55-4.51,1.66-6.45,1.11-1.94,2.62-3.46,4.54-4.57,1.92-1.11,4.07-1.66,6.43-1.66s4.51.55,6.43,1.66ZM1696.61,733.95c1.41-.82,2.51-1.95,3.32-3.39.8-1.44,1.2-3.05,1.2-4.84s-.4-3.4-1.2-4.84c-.8-1.44-1.91-2.57-3.32-3.41-1.41-.83-2.98-1.25-4.7-1.25s-3.29.42-4.68,1.25c-1.39.83-2.49,1.97-3.29,3.41-.8,1.44-1.2,3.05-1.2,4.84,0,.51.02.89.05,1.14.03.06.05.14.05.23.3,2.36,1.29,4.3,2.98,5.82,1.68,1.52,3.72,2.27,6.11,2.27,1.73,0,3.29-.41,4.7-1.23Z"></path><path class="cls-2" d="M1711.66,707.82c-.47-.48-.7-1.08-.7-1.77s.24-1.32.73-1.77c.48-.45,1.08-.68,1.77-.68s1.24.23,1.73.68c.48.45.73,1.05.73,1.77s-.24,1.29-.73,1.77c-.49.48-1.08.73-1.77.73s-1.28-.24-1.75-.73ZM1712.18,737.64c-.33-.33-.5-.76-.5-1.27v-21.31c0-.51.17-.94.5-1.27.33-.33.76-.5,1.27-.5s.93.17,1.25.5.48.76.48,1.27v21.31c0,.52-.16.94-.48,1.27-.32.33-.74.5-1.25.5s-.94-.17-1.27-.5Z"></path><path class="cls-2" d="M1742.54,736.63c0,.43-.16.78-.48,1.07-.32.29-.67.43-1.07.43-.36,0-.67-.06-.91-.18-.24-.12-.47-.33-.68-.64l-7.45-9.5-7.73,9.77c-.27.36-.68.55-1.23.55-.49,0-.87-.15-1.16-.45-.29-.3-.43-.67-.43-1.09,0-.48.15-.89.45-1.23l7.86-9.82-7.45-9.45c-.3-.33-.45-.74-.45-1.23,0-.45.14-.83.41-1.14.27-.3.67-.45,1.18-.45s.95.18,1.32.55l7.32,9.41,7.23-9.13c.42-.55.92-.82,1.5-.82.48,0,.87.15,1.16.45.29.3.43.67.43,1.09,0,.45-.17.89-.5,1.32l-7.54,9.36,7.73,9.91c.33.42.5.83.5,1.23Z"></path><path class="cls-2" d="M1762.62,714.62c1.73,1.05,3.07,2.49,4.02,4.34.95,1.85,1.43,3.95,1.43,6.32,0,.49-.15.87-.45,1.16-.3.29-.7.43-1.18.43h-18.36c.24,2.48,1.21,4.5,2.91,6.04,1.7,1.54,3.82,2.32,6.36,2.32,1.09,0,2.19-.19,3.29-.57s1.99-.86,2.66-1.43c.39-.3.8-.45,1.23-.45.33,0,.67.12,1,.36.39.36.59.77.59,1.23,0,.39-.17.74-.5,1.05-1,.85-2.27,1.55-3.82,2.11-1.54.56-3.03.84-4.45.84-2.42,0-4.59-.54-6.5-1.61-1.91-1.07-3.4-2.57-4.48-4.5-1.08-1.92-1.61-4.1-1.61-6.52s.51-4.64,1.52-6.57c1.01-1.92,2.42-3.42,4.23-4.5,1.8-1.07,3.86-1.61,6.16-1.61s4.23.52,5.95,1.57ZM1750.94,718.32c-1.52,1.42-2.44,3.3-2.77,5.63h16.63c-.24-2.33-1.09-4.21-2.55-5.63s-3.32-2.14-5.59-2.14-4.21.71-5.73,2.14Z"></path><path class="cls-2" d="M1774.37,735.93c-1.17-1.47-1.75-3.36-1.75-5.66v-25.9c0-.51.17-.93.5-1.25.33-.32.74-.48,1.23-.48.51,0,.93.16,1.25.48.32.32.48.74.48,1.25v25.9c0,1.3.27,2.36.8,3.18.53.82,1.2,1.23,2.02,1.23h1.14c.45,0,.82.16,1.09.48.27.32.41.74.41,1.25s-.19.93-.57,1.25c-.38.32-.87.48-1.48.48h-.59c-1.85,0-3.36-.73-4.52-2.2Z"></path><path class="cls-2" d="M1230.97,722.85h21.65c2.46,0,2.46-3.82,0-3.82h-21.65c-2.46,0-2.46,3.82,0,3.82h0Z"></path><path class="cls-2" d="M1230.97,734.06h21.65c2.46,0,2.46-3.82,0-3.82h-21.65c-2.46,0-2.46,3.82,0,3.82h0Z"></path><path class="cls-2" d="M1238.23,737.25v-21.65c0-2.46-3.82-2.46-3.82,0v21.65c0,2.46,3.82,2.46,3.82,0h0Z"></path><path class="cls-2" d="M1249.44,737.25v-21.65c0-2.46-3.82-2.46-3.82,0v21.65c0,2.46,3.82,2.46,3.82,0h0Z"></path><path class="cls-1" d="M1788.76,738.32c-.58-.58-.87-1.28-.87-2.09s.3-1.57.89-2.15c.6-.58,1.29-.87,2.07-.87s1.52.3,2.09.89c.58.6.87,1.3.87,2.12s-.29,1.52-.87,2.09c-.58.58-1.28.87-2.09.87s-1.52-.29-2.09-.87Z"></path></svg>