<svg xmlns="http://www.w3.org/2000/svg" id="Layer_1" viewBox="275 410 707 370"><defs><style>.cls-1{fill:#fff;}.cls-2{fill:#15f5ba;}</style></defs><rect class="cls-1" x="275" y="410" width="707" height="370" rx="47.54" ry="47.54"></rect><rect x="275" y="477" width="707" height="10"></rect><path class="cls-2" d="M906.74,448.82h46.26c1.93,0,1.93-3,0-3h-46.26c-1.93,0-1.93,3,0,3h0Z"></path><path class="cls-2" d="M906,455.82h46.26c1.93,0,1.93-3,0-3h-46.26c-1.93,0-1.93,3,0,3h0Z"></path><path class="cls-2" d="M906,462.82h46.26c1.93,0,1.93-3,0-3h-46.26c-1.93,0-1.93,3,0,3h0Z"></path></svg>