<?xml version="1.0" encoding="UTF-8"?><svg id="Layer_1" xmlns="http://www.w3.org/2000/svg" viewBox="0 0 1920 1080"><defs><style>.cls-1{fill:#fff;}.cls-2{fill:#15f5ba;}</style></defs><rect class="cls-1" x="275" y="410" width="707" height="370" rx="47.54" ry="47.54"/><rect x="275" y="477" width="707" height="10"/><path class="cls-2" d="M906.74,448.82h46.26c1.93,0,1.93-3,0-3h-46.26c-1.93,0-1.93,3,0,3h0Z"/><path class="cls-2" d="M906,455.82h46.26c1.93,0,1.93-3,0-3h-46.26c-1.93,0-1.93,3,0,3h0Z"/><path class="cls-2" d="M906,462.82h46.26c1.93,0,1.93-3,0-3h-46.26c-1.93,0-1.93,3,0,3h0Z"/></svg>