<?xml version="1.0" encoding="UTF-8"?><svg id="Layer_1" xmlns="http://www.w3.org/2000/svg" viewBox="0 0 1920 1080"><defs><style>.cls-1{fill:#fff;}.cls-2{fill:#15f5ba;opacity:.54;}</style></defs><path class="cls-1" d="M457,759.5c-.91,24.94-1.82,49.87-2.73,74.81-.91,25.02-1.82,50.04-2.74,75.05-.51,14.05-1.02,28.09-1.54,42.14l2.26-1.3c-11.43-7.39-22.54-21.75-16.93-36.04,4.5-11.44,17.84-17.3,29.03-19.77,11.78-2.6,23.96-1.39,35.07,3.34,11.03,4.69,21.71,13.82,20.59,26.92-.52,6.09-3.62,11.75-7.45,16.39-2.62,3.17-5.98,6.36-9.03,8.6-.26.19-.53.38-.8.57l2.26,1.3c-.26-17.18-.52-34.37-.78-51.55-.26-17.1-.52-34.2-.78-51.31-.15-9.71-.29-19.43-.44-29.14-.03-1.93-3.03-1.93-3,0,.26,17.18.52,34.37.78,51.55.26,17.1.52,34.2.78,51.31.15,9.71.29,19.43.44,29.14.02,1.07,1.29,1.96,2.26,1.3,7.98-5.42,15.28-13.78,17.88-23.18,1.82-6.58.98-13.63-2.53-19.5s-8.63-9.81-14.3-12.87c-11.43-6.16-24.8-8.49-37.61-6.52-12.54,1.93-26.9,7.61-33.58,19.11-8.02,13.8.16,29.88,11.31,39.08,1.69,1.39,3.46,2.68,5.3,3.87,1,.64,2.22-.21,2.26-1.3.91-24.94,1.82-49.87,2.73-74.81.91-25.02,1.82-50.04,2.74-75.05.51-14.05,1.02-28.09,1.54-42.14.07-1.93-2.93-1.93-3,0h0Z"/><path class="cls-2" d="M419,759c-.07,12.75-1.76,31.14-10,51-8.03,19.34-15.72,24.27-26,43-5.11,9.32-19.75,36.65-20,70-.3,39.29,19.5,68.86,29,81,6.33,8.09,45.11,57.61,106,53,44.33-3.36,72.3-33.28,79.5-41.5,8.8-9.11,26.23-29.69,33-61,6.47-29.91-.14-54.02-3-64-5.31-18.52-13.54-32.23-21.5-45.5-12.4-20.66-17.61-22.44-24.5-35.5-6.51-12.36-13.08-31.85-10.5-61.5-4.33,22.67-8.67,45.33-13,68,10,15.67,20,31.33,30,47-5.65,2.68-15.21,6.09-26,4-25.85-5.01-36.74-37.29-39-44-3.09-9.16-3.77-21.9-5-47-.74-15.05-.95-27.49-1-36-7.47,4.46-17.17,9.29-29,13-19.79,6.21-37.24,6.68-49,6Z"/></svg>