<?xml version="1.0" encoding="UTF-8"?><svg id="Layer_1" xmlns="http://www.w3.org/2000/svg" viewBox="0 0 1920 1080"><defs><style>.cls-1{font-family:Comfortaa-Bold, Comfortaa;font-size:61.78px;font-weight:700;}.cls-1,.cls-2{fill:#fff;}.cls-3{letter-spacing:-.07em;}.cls-4{fill:none;}.cls-5,.cls-6,.cls-7{stroke:#000;stroke-miterlimit:10;}.cls-8{fill:#231f20;}.cls-6{stroke-width:1.06px;}.cls-7{stroke-width:1.37px;}.cls-9{fill:#15f5ba;}</style></defs><rect class="cls-2" x="275" y="410" width="707" height="370" rx="47.54" ry="47.54"/><rect x="275" y="477" width="707" height="10"/><path class="cls-2" d="M681.5,648.5c45.83,13.83,91.67,27.67,137.5,41.5v27c-7,4.67-14,9.33-21,14-.33,6.33-.67,12.67-1,19h-136c.67-21,1.33-42,2-63,6.17-12.83,12.33-25.67,18.5-38.5Z"/><polygon class="cls-4" points="672.42 697.39 671.21 687.74 674.51 680.77 660.96 674.34 655.79 685.26 657.54 699.25 672.42 697.39"/><polygon class="cls-8" points="665.09 693.24 664.27 686.62 666.26 682.42 664.9 681.78 662.72 686.38 663.61 693.43 665.09 693.24"/><rect class="cls-8" x="663.98" y="695.08" width="1.5" height="2.35" transform="translate(-81.25 87.85) rotate(-7.13)"/><rect class="cls-8" x="665.67" y="678.71" width="2.35" height="1.5" transform="translate(-232.68 991.24) rotate(-64.65)"/><rect class="cls-4" x="661.5" y="660.2" width="21.81" height="15" transform="translate(-218.87 989.54) rotate(-64.65)"/><rect class="cls-8" x="666.52" y="666.95" width="11.75" height="1.5" transform="translate(-218.87 989.54) rotate(-64.65)"/><rect class="cls-8" x="667.46" y="674.93" width="2.35" height="1.5" transform="translate(-228.24 990.68) rotate(-64.65)"/><rect class="cls-8" x="675" y="659" width="2.35" height="1.5" transform="translate(-209.53 988.41) rotate(-64.65)"/><rect class="cls-4" x="685.38" y="653.95" width="15" height="10.67" transform="translate(-262.25 708.86) rotate(-46.55)"/><rect class="cls-8" x="692.13" y="656.4" width="1.5" height="5.75" transform="translate(-262.25 708.87) rotate(-46.55)"/><rect class="cls-8" x="688.99" y="655.74" width="1.5" height="1.15" transform="translate(-261.08 705.66) rotate(-46.55)"/><rect class="cls-8" x="695.25" y="661.67" width="1.5" height="1.15" transform="translate(-263.43 712.06) rotate(-46.55)"/><rect class="cls-4" x="684.5" y="673.14" width="20.29" height="15" transform="translate(-199.87 1062.26) rotate(-67.52)"/><rect class="cls-8" x="689.19" y="679.89" width="10.93" height="1.5" transform="translate(-199.87 1062.27) rotate(-67.52)"/><rect class="cls-8" x="696.69" y="672.3" width="2.19" height="1.5" transform="translate(-190.93 1060.45) rotate(-67.52)"/><rect class="cls-8" x="690.42" y="687.45" width="2.19" height="1.5" transform="translate(-208.78 1064.06) rotate(-67.52)"/><polygon class="cls-4" points="683.84 687.15 682.43 690.56 672.42 697.39 680.87 709.78 694.57 700.44 697.7 692.88 683.84 687.15"/><polygon class="cls-8" points="688.33 693.96 687.9 695.01 680.09 700.33 680.94 701.57 689.11 696 689.64 694.71 688.33 693.96"/><rect class="cls-8" x="688.93" y="691.05" width="2.19" height="1.5" transform="translate(-213.03 1064.9) rotate(-67.52)"/><rect class="cls-8" x="677.17" y="701.72" width="2.19" height="1.5" transform="translate(-277.87 504.18) rotate(-34.29)"/><polygon class="cls-8" points="687.7 655.38 688.73 654.29 681.26 647.22 676.82 656.59 678.18 657.24 681.74 649.74 687.7 655.38"/><polygon class="cls-8" points="698.06 670.47 699.45 671.05 701.41 666.31 697.65 662.75 696.62 663.85 699.63 666.69 698.06 670.47"/><polygon class="cls-8" points="665.87 699.53 664.38 699.72 665.89 711.83 676.07 704.9 675.22 703.66 667.08 709.2 665.87 699.53"/><rect class="cls-2" x="642.5" y="749.5" width="330" height="81" rx="10.57" ry="10.57"/><path d="M961.93,829h-307.96c-.3,0-.59,0-.89,0-5.15-.1-9.01-4.18-9.07-9.27-.07-5.4,0-10.81,0-16.21,0-14.42-.19-28.85,0-43.26.07-5.09,3.93-9.17,9.08-9.27.3,0,.59,0,.89,0h35.17c14.77,0,29.54,0,44.31,0,17.78,0,35.55,0,53.33,0h171.9c1.09,0,2.17-.02,3.26,0,5.18.1,9.04,4.22,9.07,9.33.01,1.88,0,3.75,0,5.63,0,16.22,0,32.45,0,48.67,0,1.7.02,3.4,0,5.1-.07,5.1-3.93,9.16-9.07,9.27-1.93.04-1.93,3.04,0,3,6.53-.14,11.88-5.26,12.07-11.85.04-1.37,0-2.75,0-4.13v-48.99c0-2.14,0-4.29,0-6.43-.01-4.3-1.85-8.24-5.49-10.65-2.74-1.81-5.71-1.95-8.81-1.95h-40.7c-15.66,0-31.32,0-46.98,0h-111.36c-16.79,0-33.59,0-50.38,0-12.62,0-25.24,0-37.86,0h-18.56c-6.93,0-12.72,4.91-12.85,12.08-.09,4.78,0,9.58,0,14.36,0,15.01-.07,30.02,0,45.03.03,7.05,5.35,12.49,12.44,12.53,1.82,0,3.64,0,5.46,0h27.61c14.67,0,29.34,0,44,0h231.41c1.93,0,1.93-3,0-3Z"/><path class="cls-2" d="M858,449c-1.08,2.11-3.45,6-8,9-7.6,5.02-15.65,3.85-17.64,3.5-.09,1.88-.43,12.85,7.64,20.5,8.38,7.94,22.4,9.04,34,2-1.55-2.39-5.98-9.89-5-20,.65-6.67,3.36-11.53,5-14-5.33-.33-10.67-.67-16-1Z"/><circle class="cls-9" cx="668" cy="495" r="13"/><path class="cls-2" d="M832.28,417.22c-.84-14.2,5.54-24.79,8.71-32.13,14.02-32.55,39.21-50.17,51.16-57.38,8.21,8.56,17.39,19.76,25.75,33.91,4.13,7,7.49,13.74,10.23,20.01-2.18,4.7-4.36,9.4-6.54,14.1,7.2-1.66,14.4-.74,17.39,3.42,4.55,6.35-1.86,18.59-10.57,23.63-7.63,4.42-15.77,2.58-18.08,1.97-2,3.79-5.31,8.93-10.66,13.77-9.62,8.72-20.18,11.39-25.24,12.32-3.94.72-15.21,1.59-26.14-5.66-10.15-6.73-13.76-16.53-14.78-19.69-.45-1.9-1.01-4.77-1.22-8.28Z"/><path d="M833.78,417.22c-.47-8.61,1.84-16.75,5.36-24.53,3.28-7.25,6.49-14.53,10.63-21.34,7.73-12.71,17.9-23.83,29.58-33.01,4.32-3.39,8.86-6.5,13.56-9.34l-1.82-.23c11.54,12.07,21.44,25.65,29.32,40.37,2.32,4.33,4.45,8.75,6.42,13.25v-1.51c-2.18,4.7-4.36,9.4-6.54,14.1-.55,1.19.35,2.5,1.69,2.2,4.35-.97,9.7-1.4,13.7.99,2.92,1.75,3.71,4.98,3.11,8.17-1.49,7.99-8.45,15.29-16.3,17.21-3.86.94-7.94.76-11.77-.24-.62-.16-1.38.1-1.69.69-6.96,13.09-19.44,22.24-33.93,25.2-13.37,2.73-27.79-3.36-35.48-14.63-1.61-2.36-2.99-4.91-4.01-7.58-1.19-3.11-1.62-6.46-1.83-9.77-.12-1.92-3.12-1.93-3,0,.21,3.29.56,6.77,1.69,9.9.88,2.43,1.98,4.78,3.31,7,4.21,7.05,10.57,12.61,18.16,15.76,6.32,2.63,13.46,3.57,20.24,2.52,6.17-.95,12.25-3.23,17.64-6.33,8.39-4.82,15.26-12.03,19.8-20.56l-1.69.69c3.9,1.01,8,1.24,11.97.53,5.26-.94,9.92-3.81,13.48-7.75,4.98-5.51,10.47-16.68,3.02-22.57-4.73-3.73-11.66-3.37-17.21-2.13l1.69,2.2c1.26-2.72,2.52-5.44,3.78-8.15.58-1.25,1.16-2.5,1.74-3.75.33-.72.76-1.46,1.02-2.2s.16-1.15-.17-1.9c-2.19-5.02-4.63-9.94-7.27-14.74-5.3-9.63-11.47-18.77-18.38-27.31-3.29-4.07-6.76-8-10.38-11.78-.45-.47-1.26-.57-1.82-.23-10.06,6.08-19.39,13.42-27.55,21.88-5.63,5.84-10.72,12.22-15.11,19.04s-7.89,14.56-11.41,22.12c-4.09,8.81-7.09,17.92-6.56,27.76.1,1.92,3.1,1.93,3,0Z"/><path class="cls-9" d="M693.71,769.67l4.33,13.33h14.02c2.34,0,3.32,3,1.42,4.38l-11.34,8.24,4.33,13.33c.72,2.23-1.83,4.08-3.72,2.7l-11.34-8.24-11.34,8.24c-1.9,1.38-4.45-.48-3.72-2.7l4.33-13.33-11.34-8.24c-1.9-1.38-.92-4.38,1.42-4.38h14.02s4.33-13.33,4.33-13.33c.72-2.23,3.88-2.23,4.6,0Z"/><path class="cls-9" d="M751.96,769.67l4.33,13.33h14.02c2.34,0,3.32,3,1.42,4.38l-11.34,8.24,4.33,13.33c.72,2.23-1.83,4.08-3.72,2.7l-11.34-8.24-11.34,8.24c-1.9,1.38-4.45-.48-3.72-2.7l4.33-13.33-11.34-8.24c-1.9-1.38-.92-4.38,1.42-4.38h14.02s4.33-13.33,4.33-13.33c.72-2.23,3.88-2.23,4.6,0Z"/><path class="cls-9" d="M810.21,769.67l4.33,13.33h14.02c2.34,0,3.32,3,1.42,4.38l-11.34,8.24,4.33,13.33c.72,2.23-1.83,4.08-3.72,2.7l-11.34-8.24-11.34,8.24c-1.9,1.38-4.45-.48-3.72-2.7l4.33-13.33-11.34-8.24c-1.9-1.38-.92-4.38,1.42-4.38h14.02s4.33-13.33,4.33-13.33c.72-2.23,3.88-2.23,4.6,0Z"/><path class="cls-9" d="M868.46,769.67l4.33,13.33h14.02c2.34,0,3.32,3,1.42,4.38l-11.34,8.24,4.33,13.33c.72,2.23-1.83,4.08-3.72,2.7l-11.34-8.24-11.34,8.24c-1.9,1.38-4.45-.48-3.72-2.7l4.33-13.33-11.34-8.24c-1.9-1.38-.92-4.38,1.42-4.38h14.02s4.33-13.33,4.33-13.33c.72-2.23,3.88-2.23,4.6,0Z"/><path class="cls-9" d="M926.71,769.67l4.33,13.33h14.02c2.34,0,3.32,3,1.42,4.38l-11.34,8.24,4.33,13.33c.72,2.23-1.83,4.08-3.72,2.7l-11.34-8.24-11.34,8.24c-1.9,1.38-4.45-.48-3.72-2.7l4.33-13.33-11.34-8.24c-1.9-1.38-.92-4.38,1.42-4.38h14.02s4.33-13.33,4.33-13.33c.72-2.23,3.88-2.23,4.6,0Z"/><rect class="cls-4" x="777.86" y="720.12" width="15" height="18.03" transform="translate(-266.11 936.15) rotate(-54.01)"/><rect class="cls-8" x="779.82" y="723.44" width="2" height="4.8" transform="translate(-265.31 931.11) rotate(-54.01)"/><rect class="cls-8" x="784.36" y="727.93" width="2" height="2.4" transform="translate(-266.1 936.16) rotate(-54.01)"/><rect class="cls-8" x="788.89" y="730.02" width="2" height="4.8" transform="translate(-266.89 941.18) rotate(-54.01)"/><rect class="cls-4" x="799.82" y="722.48" width="16.73" height="15" transform="translate(-268.96 569.35) rotate(-33.61)"/><rect class="cls-8" x="801.62" y="731.86" width="4.46" height="2" transform="translate(-271.28 567.44) rotate(-33.61)"/><rect class="cls-8" x="807.06" y="728.98" width="2.23" height="2" transform="translate(-268.96 569.36) rotate(-33.61)"/><rect class="cls-8" x="810.28" y="726.11" width="4.46" height="2" transform="translate(-266.64 571.25) rotate(-33.61)"/><rect class="cls-4" x="811" y="691.63" width="15" height="27.48"/><rect class="cls-8" x="817.5" y="710.26" width="2" height="7.32"/><rect class="cls-8" x="817.5" y="703.55" width="2" height="3.66"/><rect class="cls-8" x="817.5" y="693.18" width="2" height="7.32"/><rect class="cls-4" x="790.08" y="669.61" width="15" height="27.64" transform="translate(74.23 1444.98) rotate(-87.07)"/><rect class="cls-8" x="805.17" y="680.19" width="2" height="7.36" transform="translate(81.93 1453.98) rotate(-87.07)"/><rect class="cls-8" x="796.59" y="681.59" width="2" height="3.68" transform="translate(74.23 1444.99) rotate(-87.07)"/><rect class="cls-8" x="788.01" y="679.31" width="2" height="7.36" transform="translate(66.53 1436.02) rotate(-87.07)"/><rect class="cls-4" x="761.65" y="696.24" width="27.58" height="15" transform="translate(46.2 1455.25) rotate(-88.09)"/><rect class="cls-8" x="772.05" y="694.17" width="7.34" height="2" transform="translate(55.05 1447.25) rotate(-88.09)"/><rect class="cls-8" x="773.6" y="702.73" width="3.67" height="2" transform="translate(46.22 1455.25) rotate(-88.09)"/><rect class="cls-8" x="771.48" y="711.29" width="7.34" height="2" transform="translate(37.38 1463.23) rotate(-88.09)"/><polygon class="cls-8" points="799.95 734.28 801.06 735.94 796.85 738.74 792.78 735.78 793.96 734.16 796.91 736.3 799.95 734.28"/><polygon class="cls-8" points="817.52 719.78 819.52 719.78 819.52 723.67 816.28 725.82 815.17 724.14 817.52 722.59 817.52 719.78"/><polygon class="cls-8" points="812.52 685.18 812.62 683.18 819.51 683.53 819.51 690.41 817.51 690.41 817.51 685.43 812.52 685.18"/><polygon class="cls-8" points="776.92 688.72 774.92 688.66 775.17 681.27 782.52 681.64 782.42 683.65 777.1 683.37 776.92 688.72"/><polygon class="cls-8" points="778.11 722.66 776.93 724.27 773.81 722.01 773.94 718.17 775.95 718.23 775.85 721.01 778.11 722.66"/><path class="cls-2" d="M848,748c3,13.33,6,26.67,9,40-4.66.91-26.28,4.62-45-9-7.68-5.59-12.32-12.24-15-17-.33-10-.67-20-1-30l72-48c-1-25.33-2-50.67-3-76,18.33-1,36.67-2,55-3,2.33,24.67,4.67,49.33,7,74-4.33,9-8.67,18-13,27l-66,42Z"/><circle class="cls-9" cx="923" cy="682" r="13"/><path d="M715.26,534.8c15.11-6.89,31.19-11.54,47.64-13.85l-1.69-2.2c-10.05,16.58-20.38,32.98-30.98,49.21-11.06,16.92-22.42,33.63-34.08,50.14-6.55,9.28-13.2,18.5-19.94,27.65-.3.4-.27,1.11,0,1.51,9.84,14.85,24.22,26.78,41.55,31.52,7.62,2.08,15.52,3.05,23.35,3.96,11.61,1.35,23.24,2.49,34.84,3.94,14.1,1.76,28.16,3.86,42.16,6.27.87.15,1.52-.23,1.85-1.05,12.31-30.86,24.61-61.72,36.92-92.58,3.44-8.63,6.88-17.25,10.32-25.88l-2.95-.4c-.93,29.24-.57,58.51,1.11,87.71.46,7.92,1.01,15.84,1.65,23.75l.74-1.3c-12,8-24,16-36,24-6.07,4.05-12.15,8.1-18.22,12.15l-8.89,5.93-4.22,2.81c-1.53,1.02-3.25,1.95-4.67,3.11-1.23,1.01-.69,3.03-.64,4.45.06,1.75.12,3.51.18,5.26.12,3.6.24,7.19.36,10.79.06,1.67.11,3.33.17,5,.06,1.87-.11,3.94.19,5.79.15.92.84,1.63,1.39,2.37.66.86,1.33,1.71,2.03,2.55,7.63,9.1,17.82,15.94,29.16,19.48,9.77,3.05,20.23,3.65,30.32,2.05,1.04-.17,1.26-1.42.9-2.2-5.42-11.67-8.41-24.38-8.8-37.24l-.74,1.3c11.14-7.34,22.23-14.76,33.25-22.28,10.9-7.43,21.87-14.81,32.54-22.57,1.17-.85,1.64-2.54,2.25-3.81.77-1.6,1.54-3.21,2.31-4.81,1.42-2.96,2.85-5.93,4.27-8.89.73-1.52,1.46-3.04,2.19-4.57.35-.72.69-1.44,1.04-2.16.33-.68.86-1.44.9-2.2.05-.93-.28-2.04-.41-2.97-.18-1.3-.35-2.6-.53-3.89-1.6-11.98-3.06-23.99-4.36-36-1.22-11.2-1.74-22.42-3.76-33.53-.34-1.9-3.24-1.09-2.89.8.93,5.11,1.66,10.26,2.12,15.43.36,4.06.56,8.13.98,12.19,1.11,10.57,2.34,21.12,3.68,31.66.71,5.58,1.45,11.15,2.22,16.72l.15-1.16c-2.23,4.65-4.46,9.29-6.69,13.94-1.12,2.32-2.23,4.65-3.35,6.97-.5,1.04-1,2.08-1.5,3.12-.56,1.18-1.84,1.77-2.89,2.52-8.21,5.78-16.46,11.51-24.75,17.19s-16.78,11.43-25.22,17.06c-4.2,2.8-8.45,5.53-12.63,8.37-1.02.69-1.2,1.16-1.15,2.38.04,1.04.09,2.09.16,3.13.15,2.18.38,4.36.67,6.52,1.33,9.81,4.17,19.33,8.34,28.31l.9-2.2c-10.33,1.64-21.12.71-30.98-2.81-6.92-2.47-13.38-6.28-18.9-11.12-2.15-1.89-4.17-3.92-6.04-6.09-.73-.84-1.43-1.7-2.11-2.57-.31-.4-.77-.85-.98-1.31-.26-.56-.16-1.53-.18-2.29-.3-9.12-.61-18.25-.91-27.37l-.74,1.3c18.67-12.44,37.33-24.89,56-37.33,5.33-3.56,10.67-7.11,16-10.67.42-.28.79-.76.74-1.3-2.37-29.07-3.46-58.25-3.24-87.42.06-8.02.22-16.03.48-24.04.06-1.81-2.36-1.87-2.95-.4-12.31,30.86-24.61,61.72-36.92,92.58-3.44,8.63-6.88,17.25-10.32,25.88l1.85-1.05c-24.12-4.16-48.37-7.07-72.68-9.74-14.62-1.6-29.71-3.1-42.64-10.68-10.02-5.87-18.38-14.24-24.78-23.88v1.51c12.03-16.34,23.78-32.9,35.22-49.66,11.19-16.4,22.1-33,32.71-49.78,5.78-9.13,11.46-18.32,17.06-27.56.75-1.24-.48-2.37-1.69-2.2-16.72,2.35-33,7.15-48.36,14.15-1.75.8-.23,3.39,1.51,2.59h0Z"/><path d="M836.05,461.1c-1.32,5.27-1.17,11.28,2.89,15.33,4.66,4.65,12.05,5.55,18.29,4.8,4.92-.6,9.62-2.19,14.03-4.43,1.72-.88.2-3.46-1.51-2.59-6.25,3.18-13.67,5.2-20.7,3.89-4.02-.75-8.45-2.8-10-6.82-1.16-3-.86-6.32-.1-9.38.47-1.87-2.42-2.67-2.89-.8h0Z"/><path d="M679.59,650.5c-3.01,6.1-6.01,12.19-9.02,18.29-1.47,2.97-2.93,5.95-4.4,8.92-.73,1.49-1.47,2.97-2.2,4.46-.66,1.33-1.73,2.86-1.96,4.33-.26,1.59-.11,3.35-.16,4.96-.06,1.74-.11,3.47-.17,5.21-.11,3.39-.22,6.78-.32,10.17-.21,6.61-.42,13.23-.63,19.84-.24,7.61-.48,15.21-.72,22.82-.06,1.93,2.94,1.93,3,0,.42-13.23.84-26.46,1.26-39.69.21-6.61.42-13.23.63-19.84.03-.83.03-1.66.08-2.48.04-.7.28-1.16.6-1.8.77-1.56,1.54-3.12,2.31-4.68,1.47-2.97,2.93-5.95,4.4-8.92,3.3-6.69,6.6-13.38,9.9-20.07.85-1.73-1.74-3.25-2.59-1.51h0Z"/><path d="M895.67,323.8c-6.34,3.78-14.3,9.39-22.23,17.51-10.03,10.26-16.21,20.63-19.94,28.19,17.94-15.21,42.2-14.57,55-1.83,12.74,12.69,9.13,32.42,8.76,34.25,1.27-.69,11.85-6.69,13.96-19.63,1.58-9.72-3.42-17.58-6.47-22.43-5.1-8.11-9.23-9.19-17.08-18.26-6.03-6.97-9.82-13.54-12-17.81Z"/><path class="cls-2" d="M894.91,322.51c-14.9,8.92-27.62,21.27-36.93,35.94-2.11,3.33-4.03,6.77-5.78,10.3-.77,1.56,1.04,2.92,2.36,1.82,10.87-9.14,26.05-13.55,39.91-9.4,6.13,1.84,11.81,5.45,15.64,10.64s5.76,11.53,6.25,17.92c.2,2.66.19,5.35-.04,8.01-.13,1.52-.22,2.34-.51,3.8-.25,1.27,1.01,2.35,2.2,1.69,9.23-5.04,15.66-15.65,14.95-26.24-.47-6.93-3.77-13.17-7.55-18.85s-8.8-9.3-13.33-13.93c-6.08-6.22-11.14-13.42-15.12-21.15-.88-1.72-3.47-.2-2.59,1.51,3.3,6.42,7.36,12.45,12.07,17.92,2.42,2.81,5.04,5.43,7.79,7.92,2.12,1.92,4.28,3.81,6.14,6s3.54,4.85,5.04,7.43c1.66,2.85,3.06,5.84,3.88,9.05,1.74,6.87.11,14.06-3.96,19.8-2.28,3.21-5.36,6.05-8.83,7.95l2.2,1.69c1.98-10.02.72-21.54-4.79-30.26-7.89-12.48-23.26-17.07-37.32-14.91-8.95,1.38-17.26,5.48-24.16,11.28l2.36,1.82c7.36-14.89,18.06-28.06,31.28-38.16,3.31-2.53,6.78-4.86,10.35-7,1.66-.99.15-3.59-1.51-2.59Z"/><path d="M870.18,384.75c-2,2.09-3.73,4.38-5.31,6.8s-3.27,4.84-3.65,7.65c-.66,4.78,3.73,7.48,7.82,8.37,1.88.41,2.69-2.48.8-2.89-2.86-.63-6.48-2.23-5.51-5.78.63-2.3,2.16-4.37,3.46-6.33s2.83-3.94,4.52-5.7c1.34-1.39-.78-3.52-2.12-2.12h0Z"/><path class="cls-2" d="M857.7,418.47c4.05.88,9.63,1.65,16.23,1.25,5.56-.34,10.24-1.41,13.81-2.51-3.11,7.69-10.71,12.14-17.91,11-8.17-1.29-11.85-9.12-12.13-9.74Z"/><path d="M857.3,419.92c10.21,2.19,20.84,1.78,30.84-1.26l-1.85-1.85c-2.73,6.56-9.89,11.46-17.12,9.75-4.51-1.07-8.28-4.67-10.18-8.85-.8-1.76-3.38-.23-2.59,1.51,1.62,3.57,4.61,6.82,8.04,8.7,5.64,3.09,12.62,2.35,17.78-1.37,3.17-2.28,5.46-5.35,6.96-8.95.45-1.08-.85-2.15-1.85-1.85-9.48,2.89-19.55,3.34-29.24,1.26-1.88-.4-2.69,2.49-.8,2.89Z"/><path d="M915.09,416.73c6.62-1.55,12.73-4.77,17.8-9.29,1.44-1.29-.68-3.4-2.12-2.12-4.69,4.19-10.36,7.09-16.47,8.52-1.88.44-1.08,3.33.8,2.89h0Z"/><path class="cls-2" d="M858.26,578.8c6.44-3.7,11.83-9.09,15.54-15.54.96-1.68-1.63-3.19-2.59-1.51-3.46,6.01-8.45,11-14.46,14.46-1.67.96-.16,3.56,1.51,2.59h0Z"/><path d="M817.05,691.9c1.22,8.14,1.51,16.4.95,24.6-.13,1.93,2.87,1.92,3,0,.58-8.49.21-16.99-1.05-25.4-.29-1.9-3.18-1.09-2.89.8h0Z"/><path d="M725.12,703.94c.25,15.19.22,30.38-.12,45.56-.04,1.93,2.96,1.93,3,0,.33-15.19.37-30.38.12-45.56-.03-1.93-3.03-1.93-3,0h0Z"/><path d="M850.69,750.51c4.56-3.02,9.11-6.04,13.67-9.07l-2.05-.54c2.3,3.12,4.6,6.24,6.89,9.36l1.3-2.26h-21l.76,2.8c.15-.1.29-.19.44-.29,1.6-1.06.1-3.66-1.51-2.59-.15.1-.29.19-.44.29-1.21.8-.79,2.8.76,2.8h21c1.05,0,1.99-1.31,1.3-2.26-2.3-3.12-4.6-6.24-6.89-9.36-.46-.62-1.32-1.02-2.05-.54-4.56,3.02-9.11,6.04-13.67,9.07-1.6,1.06-.1,3.66,1.51,2.59h0Z"/><path d="M848.56,785.44c-8.45-9.98-12.76-22.9-12.19-35.94.08-1.93-2.92-1.93-3,0-.6,13.86,4.12,27.49,13.07,38.06,1.25,1.48,3.36-.66,2.12-2.12h0Z"/><path d="M835.56,785.44c-8.45-9.98-12.76-22.9-12.19-35.94.08-1.93-2.92-1.93-3,0-.6,13.86,4.12,27.49,13.07,38.06,1.25,1.48,3.36-.66,2.12-2.12h0Z"/><path d="M825.56,782.44c-8.45-9.98-12.76-22.9-12.19-35.94.08-1.93-2.92-1.93-3,0-.6,13.86,4.12,27.49,13.07,38.06,1.25,1.48,3.36-.66,2.12-2.12h0Z"/><path d="M895.5,679c-9.47-1.05-19.01.46-27.76,4.2-1.77.76-.24,3.34,1.51,2.59,8.25-3.53,17.33-4.78,26.24-3.8,1.92.21,1.9-2.79,0-3h0Z"/><path d="M734.44,463.44c-10.05,12.71-17.55,27.34-21.62,43.05-1.28,4.94-2.2,9.95-2.82,15.01-.24,1.91,2.77,1.89,3,0,2.09-16.87,8.11-33.1,17.38-47.33,1.93-2.96,3.99-5.84,6.18-8.61,1.18-1.5-.92-3.64-2.12-2.12h0Z"/><path d="M865.66,613.9c6.68-1.12,13.37-2.25,20.05-3.37,10.64-1.79,21.28-3.57,31.92-5.36,2.42-.41,4.85-.81,7.27-1.22.83-.14,1.2-1.12,1.05-1.85-3.63-17.11-7.26-34.22-10.89-51.33-1.04-4.89-2.07-9.78-3.11-14.67-.4-1.89-3.29-1.09-2.89.8,3.63,17.11,7.26,34.22,10.89,51.33,1.04,4.89,2.07,9.78,3.11,14.67l1.05-1.85c-6.68,1.12-13.37,2.25-20.05,3.37-10.64,1.79-21.28,3.57-31.92,5.36-2.42.41-4.85.81-7.27,1.22-1.9.32-1.09,3.21.8,2.89h0Z"/><ellipse class="cls-5" cx="885.82" cy="385.73" rx="5.5" ry="2.5" transform="translate(324.72 1172.26) rotate(-78.03)"/><ellipse class="cls-5" cx="860.43" cy="383.47" rx="5.5" ry="2.5" transform="translate(306.8 1145.63) rotate(-78.03)"/><path class="cls-6" d="M856.51,448.65c-2.92-.81-10.84-3.42-17.01-11.15-8.08-10.1-7.24-21.53-7-24,2.09,3.97,5.26,8.98,10,14,4.67,4.94,8.08,7.27,8.99,7.85,1.84,1.18,4.75,3,9.01,4.15,3.23.87,6.04,1.03,8,1,5.98,5.44,6.57,7.84,6,9-1.3,2.65-9.89,1.19-17.99-.85Z"/><path class="cls-6" d="M873.64,449.64c3.03.02,11.36-.32,19.41-6.07,10.53-7.51,12.85-18.72,13.3-21.17-3.1,3.25-7.51,7.2-13.45,10.73-2.49,1.48-5.89,3.5-10.79,5.09-5.48,1.78-10.29,2.22-13.61,2.28,1,1.54,2.01,3.2,3,5,.79,1.42,1.5,2.8,2.14,4.14Z"/><path class="cls-7" d="M873.5,737.5c-13.77-11.05-27.54-22.09-41.32-33.14,4.77-3.95,9.54-7.91,14.32-11.86l42,33-15,12Z"/><circle class="cls-9" cx="858.5" cy="713.5" r="11"/><path class="cls-2" d="M858.5,714.5c-1.67-1-3.33-2-5-3"/><path d="M859.26,713.2c-1.67-1-3.33-2-5-3-.67-.4-1.68-.17-2.05.54s-.18,1.62.54,2.05c1.67,1,3.33,2,5,3,.67.4,1.68.17,2.05-.54s.18-1.62-.54-2.05h0Z"/><path class="cls-2" d="M858.71,714.02c.93-2.17,1.86-4.35,2.79-6.52"/><path d="M860.01,714.78c.93-2.17,1.86-4.35,2.79-6.52.17-.39.27-.73.15-1.16-.1-.35-.36-.73-.69-.9-.64-.34-1.72-.23-2.05.54-.93,2.17-1.86,4.35-2.79,6.52-.17.39-.27.73-.15,1.16.1.35.36.73.69.9.64.34,1.72.23,2.05-.54h0Z"/><path class="cls-9" d="M906.74,448.82h46.26c1.93,0,1.93-3,0-3h-46.26c-1.93,0-1.93,3,0,3h0Z"/><path class="cls-9" d="M906,455.82h46.26c1.93,0,1.93-3,0-3h-46.26c-1.93,0-1.93,3,0,3h0Z"/><path class="cls-9" d="M906,462.82h46.26c1.93,0,1.93-3,0-3h-46.26c-1.93,0-1.93,3,0,3h0Z"/><path class="cls-9" d="M1000.5,239c-.92,20.39-3.79,40.68-8.53,60.54-3.45,14.45-7.73,28.9-13.82,42.48-1.78,3.97-3.69,7.97-6.18,11.55-.68.98-1.43,1.93-2.34,2.71-.01.01-.45.29-.44.25.02-.11.49.25.51.22.13-.26-.17-1.62-.17-1.92,0-1.2.09-2.39.17-3.59.23-3.32.48-6.63.54-9.95.16-8.9-.94-17.92-4.21-26.24-3.46-8.84-9.12-16.6-16.34-22.74-1.64-1.4-3.36-2.72-5.13-3.96-1.65-1.16-3.89-3.14-5.85-3.7-.33-.09-.53-.1-.84-.13-2.18-.2-4.47,0-6.65,0h-327.25c-2.69,0-5.38,0-8.07,0-9.84,0-19.36-2.61-27.61-8.06-13.32-8.79-21.57-23.95-21.78-39.9-.11-8.11-.04-16.23,0-24.34.07-15.49,7.44-30.34,20.06-39.45,8.53-6.16,18.66-9.24,29.14-9.25,7.51,0,15.03,0,22.54,0h330.29c3.24,0,6.46-.02,9.69.4,15.8,2.04,29.83,12.08,37.05,26.26,3.5,6.87,5.01,14.24,5.22,21.9.25,9,.38,17.95,0,26.95-.08,1.93,2.92,1.93,3,0,.39-9.23.22-18.42,0-27.64-.19-7.92-2.03-15.65-5.63-22.72-7.08-13.9-20.55-24.14-35.86-27.14-7.84-1.54-16.2-.99-24.16-.99h-336.09c-2.14,0-4.29,0-6.43,0-12.42.05-24.42,4.38-33.87,12.48-11.44,9.8-17.89,24.28-17.96,39.3-.04,8.6-.33,17.27.05,25.86.69,15.66,8.62,30.28,21.25,39.52,8.94,6.54,19.76,9.82,30.8,9.84,7.75.01,15.49,0,23.24,0h317.55c.47,0,1.24-.15,1.69,0-.08-.03.49.5.81.7,2.13,1.29,4.2,2.69,6.18,4.2,3.75,2.86,7.19,6.16,10.16,9.83,6.55,8.1,10.35,18.08,11.54,28.39.84,7.29.29,14.52-.15,21.81-.13,2.26-.62,7.9,3.28,7.01,2.29-.52,3.99-3.3,5.17-5.1,2.59-3.95,4.6-8.3,6.47-12.62,6.08-14.07,10.46-28.89,13.89-43.8,4.45-19.34,7.17-39.09,8.07-58.92.09-1.93-2.91-1.93-3,0Z"/><text class="cls-1" transform="translate(595.64 247.29)"><tspan x="0" y="0">WE</tspan><tspan class="cls-3" x="101.2" y="0">L</tspan><tspan x="136.54" y="0">COME</tspan></text><path class="cls-2" d="M734,464c-4.59,7.15-9.59,16.17-14,27-4.56,11.2-7.3,21.47-9,30-14.33-3.67-28.67-7.33-43-11-2.33-5.33-4.67-10.67-7-16,.97-2.13,1.95-4.27,2.91-6.41l56.01-26.07c-.31,1.16-.61,2.32-.92,3.48,5-.33,10-.67,15-1Z"/><circle class="cls-9" cx="668" cy="495" r="13"/><path d="M916.95,560.1c-.82-4.2-1.66-8.4-2.54-12.6-.42-2.03-.86-4.06-1.29-6.08-.22-1-.44-2.01-.66-3.01-.21-.95-.31-2.03-.8-2.87-1.12-1.93-2.52-3.74-3.76-5.59s-2.41-3.59-3.62-5.39c-2.46-3.66-4.92-7.32-7.38-10.98-4.88-7.25-9.75-14.5-14.62-21.75-2.41-3.59-4.83-7.18-7.24-10.77-.97-1.44-2.06-2.81-2.68-4.44-.48-1.26-.89-2.56-1.23-3.87-1.92-7.42-1.34-15.44,1.68-22.5.4-.94.1-1.84-.9-2.2-3.67-1.33-7.33-2.67-11-4-.81-.29-1.58.34-1.85,1.05-1.96,5.21-5.71,9.67-10.67,12.24s-10.66,2.99-16.04,2.55c-5.09-.42-9.52-2.22-13.95-4.61-1-.54-2.42-.23-3.52-.19-1.49.06-2.99.13-4.48.2-3.48.16-6.97.35-10.45.55-6.7.4-13.38.92-20.05,1.58-10.27,1.03-20.57,1.83-30.84,2.9-8.16.85-16.31,1.92-24.46,2.87-7.27.84-14.16,3.13-20.86,6.01-1.77.76-.24,3.35,1.51,2.59,6.08-2.61,12.46-4.77,19.05-5.56,7.26-.88,14.54-1.74,21.8-2.58,10.98-1.27,22.02-2.04,33.02-3.14,6.45-.65,12.89-1.18,19.36-1.57,3.57-.22,7.15-.41,10.73-.58,1.49-.07,2.98-.14,4.48-.2.56-.02,1.11-.05,1.67-.07.32-.01.63-.03.95-.04.27-.01,1.32.15.57-.17.74.31,1.44.84,2.16,1.21,1.07.55,2.17,1.04,3.29,1.48,2.81,1.12,5.74,1.83,8.74,2.19,6.15.73,12.86.14,18.45-2.64s10.14-8.17,12.42-14.23l-1.85,1.05c3.67,1.33,7.33,2.67,11,4l-.9-2.2c-2.77,6.46-3.8,13.5-2.83,20.48.42,3.02,1.18,5.98,2.32,8.8.67,1.66,1.75,3.07,2.74,4.55,1.25,1.86,2.51,3.73,3.76,5.59,9.98,14.85,19.96,29.69,29.95,44.54.74,1.1,1.49,2.21,2.23,3.31s.96,2.13,1.25,3.42c.51,2.33,1.01,4.66,1.51,6.99,1.02,4.82,1.99,9.64,2.93,14.48.37,1.89,3.26,1.09,2.89-.8h0Z"/><path d="M734,464c-4.54,4.07-19.08,18.15-22,41-1.61,12.64.96,22.99,3,29,16-4.67,32-9.33,48-14-28.33,42.33-56.67,84.67-85,127,4.66,6.97,12.56,16.73,25,24,17.07,9.98,31.82,8.89,61,12,13.09,1.39,32.01,3.94,55,9,15.67-39.67,31.33-79.33,47-119-.33,13-.67,26-1,39l60-9c-3.67-21.67-7.33-43.33-11-65-14.33-20.67-28.67-41.33-43-62-10.49,7.4-22.98,6.59-29,0-4.55-4.98-4.19-11.91-4-14-6.67-2.67-13.33-5.33-20-8-28,3.33-56,6.67-84,10Z"/><path d="M660.47,492.17c-.52,1.14-.46,1.61-.07,2.65l1.26,3.37,3.34,8.9c.32.86.63,1.72.96,2.57.69,1.78,3.32,1.91,4.98,2.38,6.22,1.74,12.47,3.39,18.75,4.95,7.11,1.77,14.25,3.42,21.41,4.97l-1.1-1.45c.25,4.77,1.34,9.37,3.2,13.76.32.75,1.41.9,2.05.54.78-.44.85-1.31.54-2.05-1.65-3.88-2.58-8.04-2.8-12.24-.03-.63-.44-1.3-1.1-1.45-14.78-3.19-29.46-6.86-44-11l1.05,1.05c-2-5.33-4-10.67-6-16l-.15,1.16.26-.58c.79-1.75-1.8-3.27-2.59-1.51h0Z"/><path d="M736.5,462c-12.79.25-25.36,3.39-36.76,9.2-1.72.88-.2,3.47,1.51,2.59,10.92-5.58,22.99-8.56,35.24-8.8,1.93-.04,1.93-3.04,0-3h0Z"/><path d="M734.44,463.44c-10.05,12.71-17.55,27.34-21.62,43.05-1.28,4.94-2.2,9.95-2.82,15.01-.24,1.91,2.77,1.89,3,0,2.09-16.87,8.11-33.1,17.38-47.33,1.93-2.96,3.99-5.84,6.18-8.61,1.18-1.5-.92-3.64-2.12-2.12h0Z"/><path class="cls-2" d="M858.26,578.8c6.44-3.7,11.83-9.09,15.54-15.54.96-1.68-1.63-3.19-2.59-1.51-3.46,6.01-8.45,11-14.46,14.46-1.67.96-.16,3.56,1.51,2.59h0Z"/></svg>