<?xml version="1.0" encoding="UTF-8"?><svg id="Layer_1" xmlns="http://www.w3.org/2000/svg" viewBox="0 0 1920 1080"><defs><style>.cls-1{fill:#fff;}.cls-2{fill:#15f5ba;}</style></defs><path class="cls-2" d="M1142.51,593.39c2.13,2.17,4.26,4.34,6.4,6.51l15.52,15.8c6.45,6.56,12.9,13.12,19.34,19.68,5.98,6.08,11.95,12.16,17.93,18.24,3.67,3.74,7.35,7.48,11.02,11.22,6.58,6.69,11.67,15.12,15.53,23.62,7.1,15.63,9.71,33.19,7.68,50.22-1.94,16.29-8.25,31.96-18.08,45.09-1.47,1.96-2.98,3.98-4.73,5.71l-4.01,3.93c-2.61,2.56-5.12,5.27-7.98,7.57-12.71,10.21-28.07,16.88-44.16,19.41-16.98,2.66-34.59.51-50.49-5.98-7.3-2.98-14.21-6.96-20.51-11.69-3.76-2.82-6.99-5.94-10.27-9.27s-6.28-6.44-9.02-10.14c-4.71-6.37-8.65-13.33-11.6-20.69-6.4-16-8.39-33.69-5.55-50.7,2.68-16.06,9.54-31.36,19.84-43.98.63-.77,1.26-1.52,1.91-2.27.28-.32.56-.64.84-.96.19-.21.38-.42.57-.63.27-.31.31-.29.01-.02.04-.04.08-.09.13-.13.34-.26.63-.62.93-.92l4.18-4.11c5.05-4.96,10.09-9.92,15.14-14.88,6.53-6.41,13.05-12.83,19.58-19.24,6.18-6.07,12.36-12.14,18.54-18.22,3.92-3.85,7.84-7.71,11.77-11.56.55-.54,1.1-1.08,1.65-1.62,1.38-1.36-.74-3.48-2.12-2.12-2.25,2.21-4.5,4.42-6.75,6.64-5.45,5.36-10.9,10.72-16.36,16.07-6.7,6.59-13.41,13.18-20.11,19.76-6.01,5.9-12.01,11.8-18.02,17.7l-10.05,9.88c-2.56,2.52-4.79,5.42-6.93,8.31-4.8,6.48-8.74,13.54-11.8,21-6.66,16.2-8.68,34.13-6.08,51.43,2.44,16.27,9.13,31.76,19.21,44.75,2.67,3.45,5.7,6.44,8.75,9.55,1.16,1.18,2.29,2.39,3.48,3.54,2.43,2.35,5.23,4.43,7.96,6.41,13.42,9.7,29.32,15.7,45.75,17.57,17.17,1.96,34.74-.8,50.52-7.81,7.33-3.26,14.2-7.47,20.5-12.44,3.04-2.4,5.71-5.21,8.47-7.93l4.14-4.07c1.75-1.72,3.24-3.73,4.73-5.68,4.86-6.37,8.89-13.35,12-20.73,6.82-16.15,9.12-34,6.73-51.36-2.25-16.3-8.69-31.96-18.66-45.05-2.76-3.62-5.75-6.71-8.93-9.94-5.02-5.11-10.04-10.21-15.06-15.32-6.52-6.63-13.03-13.26-19.55-19.9-6.13-6.24-12.26-12.47-18.38-18.71l-11.8-12.01c-.55-.56-1.1-1.12-1.65-1.68-1.36-1.38-3.48.74-2.12,2.12Z"/><circle class="cls-1" cx="1142.63" cy="727.53" r="66"/></svg>