<svg xmlns="http://www.w3.org/2000/svg" id="Layer_1" viewBox="660.31 299.77 136.68 194.69"><defs><style>.cls-1{fill:#fff;}</style></defs><path class="cls-1" d="M786,358c.33,4,.67,8,1,12-9.83,2.73-19.83,5.4-30,8-5.37,1.37-10.7,2.71-16,4-7.02,26.51-14.05,53.01-21.08,79.52l-56.01,26.07c2.37-5.19,4.73-10.38,7.09-15.59,16.36-36.14,32.36-72.14,48-108-.67-2.33-1.33-4.67-2-7,7.58-10.75,12.68-20.18,16-27,7.47-15.32,9.7-25.14,18-28,5.43-1.87,11.07.06,15,2,9.67,7,19.33,14,29,21-6.52,6.31-13.19,12.64-20,19-4.35,4.06-8.68,8.06-13,12,8,.67,16,1.33,24,2Z"></path><path class="cls-1" d="M786,358c.33,4,.67,8,1,12-9.83,2.73-19.83,5.4-30,8-5.37,1.37-10.7,2.71-16,4-7.02,26.51-14.05,53.01-21.08,79.52l-56.01,26.07c2.37-5.19,4.73-10.38,7.09-15.59,16.36-36.14,32.36-72.14,48-108-.67-2.33-1.33-4.67-2-7,7.58-10.75,12.68-20.18,16-27,7.47-15.32,9.7-25.14,18-28,5.43-1.87,11.07.06,15,2,9.67,7,19.33,14,29,21-6.52,6.31-13.19,12.64-20,19-4.35,4.06-8.68,8.06-13,12,8,.67,16,1.33,24,2Z"></path><path d="M721.18,464.9c5.06-21.89,10.62-43.67,16.68-65.3,1.66-5.91,3.35-11.81,5.09-17.7l-1.05,1.05c15.15-4,30.3-8,45.46-12,.62-.16,1.13-.8,1.1-1.45-.15-4-.3-8-.46-12-.02-.59-.45-1.35-1.1-1.45-9.24-1.37-18.56-1.37-27.8,0l1.46,2.51c12.38-10.58,24.39-21.58,36-33,.74-.73.47-1.81-.3-2.36-6.52-4.63-13.12-9.16-19.87-13.45-4.3-2.73-8.65-5.48-13.23-7.71-2.26-1.1-4.67-2.12-7.21-2.26-2.02-.11-3.61.45-5.35,1.34-.55.28-1.1.58-1.65.87-.79.43-1.87.8-2.51,1.44-.16.16-.24.33-.36.52-.36.57-.68,1.16-1.01,1.74-3.67,6.3-7.34,12.6-11.01,18.91-4.35,7.48-8.71,14.96-13.04,22.46-1.17,2.03-2.35,4.05-3.49,6.09-1.66,2.99-.51,7.03.16,10.18.11.53.23,1.05.36,1.57l.15-1.16c-3.91,9.11-7.81,18.22-11.91,27.25-2.24,4.92-4.49,9.84-6.75,14.75-.8,1.74,1.78,3.27,2.59,1.51,5.11-11.12,10.2-22.25,15.02-33.5,1.21-2.81,2.57-5.6,3.63-8.47.35-.94.03-1.72-.17-2.66-.31-1.42-.59-2.85-.75-4.29-.2-1.71-.32-2.64.4-3.92.68-1.21,1.37-2.41,2.06-3.61,5.45-9.47,10.95-18.9,16.45-28.34,2.47-4.24,4.94-8.48,7.41-12.72.7-1.2,1.4-2.4,2.1-3.6.15-.25.27-.56.46-.79.13-.16.03.03,0,.05-.47.3.75-.29.71-.27.23-.13.46-.25.69-.38.47-.26.94-.51,1.41-.76.51-.27,1.03-.52,1.55-.77.08-.04.16-.07.24-.11.22-.1-.32.12-.02,0,.12-.04.23-.09.35-.12,2-.52,3.93-.04,5.81.68.87.33,1.79.76,2.83,1.29,1.19.6,2.35,1.24,3.51,1.89,7.53,4.26,14.75,9.1,21.87,14.01,2.36,1.62,4.7,3.27,7.03,4.92l-.3-2.36c-11.61,11.42-23.62,22.42-36,33-1.27,1.09.15,2.7,1.46,2.51,8.66-1.29,17.54-1.29,26.2,0l-1.1-1.45c.15,4,.3,8,.46,12l1.1-1.45c-8.61,2.27-17.23,4.55-25.84,6.82-4.31,1.14-8.61,2.27-12.92,3.41-2.14.57-4.34,1.04-6.46,1.71-1.05.33-1.26,1.02-1.55,2.01-.31,1.05-.61,2.1-.92,3.15-4.86,16.68-9.41,33.45-13.66,50.29-2.41,9.53-4.71,19.09-6.92,28.66-.43,1.88,2.46,2.68,2.89.8h0Z"></path><path d="M699.54,405.74c-10.15,22.44-20.29,44.88-30.44,67.32-2.88,6.37-5.76,12.74-8.64,19.1-.79,1.75,1.8,3.27,2.59,1.51,10.15-22.44,20.29-44.88,30.44-67.32,2.88-6.37,5.76-12.74,8.64-19.1.79-1.75-1.8-3.27-2.59-1.51h0Z"></path><path d="M762.2,304.74c-2.58,4.15-5.16,8.3-7.74,12.46-4.14,6.66-8.28,13.32-12.42,19.98-.95,1.52-1.89,3.04-2.84,4.56-1.02,1.64,1.57,3.15,2.59,1.51,2.58-4.15,5.16-8.3,7.74-12.46,4.14-6.66,8.28-13.32,12.42-19.98.95-1.52,1.89-3.04,2.84-4.56,1.02-1.64-1.57-3.15-2.59-1.51h0Z"></path><path d="M771.2,309.74c-7.67,11.67-15.33,23.33-23,35-1.06,1.62,1.53,3.12,2.59,1.51,7.67-11.67,15.33-23.33,23-35,1.06-1.62-1.53-3.12-2.59-1.51h0Z"></path><path d="M782.44,315.44c-8,10-16,20-24,30-1.19,1.49.91,3.63,2.12,2.12,8-10,16-20,24-30,1.19-1.49-.91-3.63-2.12-2.12h0Z"></path></svg>